<?xml version="1.0" encoding="UTF-8"?>
<!DOCTYPE svg PUBLIC "-//W3C//DTD SVG 1.1//EN" "http://www.w3.org/Graphics/SVG/1.1/DTD/svg11.dtd">
<!-- Creator: CorelDRAW -->
<svg xmlns="http://www.w3.org/2000/svg" xml:space="preserve" width="26.2788mm" height="29.2108mm" version="1.1" style="shape-rendering:geometricPrecision; text-rendering:geometricPrecision; image-rendering:optimizeQuality; fill-rule:evenodd; clip-rule:evenodd"
viewBox="0 0 118.03 131.2"
 xmlns:xlink="http://www.w3.org/1999/xlink"
 xmlns:xodm="http://www.corel.com/coreldraw/odm/2003">
 <defs>
  <style type="text/css">
   <![CDATA[
    .str0 {stroke:white;stroke-width:0.9;stroke-miterlimit:22.9256}
    .fil1 {fill:none}
    .fil0 {fill:white}
   ]]>
  </style>
 </defs>
 <g id="Layer_x0020_1">
  <metadata id="CorelCorpID_0Corel-Layer"/>
  <g id="_2729108335968">
   <path class="fil0 str0" d="M0.45 33.08c0,0.61 0.14,1.22 0.26,1.82l0.46 2.7c0.03,0.13 0.01,0.19 0.03,0.32 0.06,0.38 0.19,0.78 0.23,1.17 0.02,0.15 -0.01,0.19 0.03,0.32 0.07,0.24 0.3,1.86 0.34,2.05l0.11 0.59c0.02,0.12 0.02,0.21 0.04,0.31l0.08 0.44c0.03,0.1 0.06,0.06 0.06,0.12 0,0.19 -0.04,0.03 -0.02,0.2l0.07 0.49c0.02,0.1 0.04,0.15 0.04,0.24 0.02,0.21 0.07,0.26 0.08,0.48l0.09 0.41c0.01,0.08 0.01,0.15 0.02,0.23l0.35 2.14c0.04,0.23 0.12,0.47 0.13,0.71 0.01,0.15 0,0.13 0.03,0.25l0.18 0.91c0.05,0.15 0.02,0.34 0.06,0.5l0.18 0.95c0,0.15 -0.04,0.02 0.03,0.28 0.03,0.12 0.03,0.2 0.05,0.34l0.13 0.68c0,0.07 -0,0.09 0.01,0.17 0.01,0.07 0.04,0.09 0.05,0.16l0.1 0.65c0,0.03 0.02,0.13 0.03,0.17 0.09,0.3 0.01,0.13 0.04,0.34l0.26 1.57c0.01,0.16 0.06,0.25 0.09,0.4 0.01,0.09 0.01,0.14 0.02,0.23 0.02,0.13 0.04,0.1 0.06,0.22 0.01,0.09 -0,0.14 0.02,0.23 0.03,0.14 0.04,0 0.06,0.22 0.02,0.27 0.11,0.42 0.11,0.42 0,0.18 -0.05,0.02 -0.02,0.23l0.21 1.3c0.08,0.33 0.1,0.65 0.21,0.99 0.03,0.1 0.02,0.15 0.02,0.26 0,0.24 0.12,0.52 0.14,0.77 0.03,0.38 0.07,0.71 0.16,1.07l0.1 0.5c0.03,0.11 0.01,0.14 0.03,0.26 0.02,0.14 0.05,0.09 0.06,0.25l0.19 1.21c0.02,0.11 0.01,0.18 0.03,0.29 0.02,0.11 0.04,0.07 0.06,0.22l0.07 0.56c0.01,0.13 0.04,0.16 0.06,0.26l0.12 0.76c0.02,0.2 0.04,0.05 0.07,0.25l0.14 0.99c0.07,0.3 0.09,0.72 0.18,1.01 0.02,0.05 0.02,0.03 0.03,0.11l0.09 0.68c0.02,0.11 0.05,0.15 0.07,0.25 0.04,0.17 0.04,0.35 0.07,0.53 0.02,0.16 0.05,0.38 0.08,0.51l0.09 0.51c0.03,0.11 0.01,0.14 0.03,0.25 0.01,0.1 0.04,0.15 0.06,0.26l0.86 5.15c0.11,0.8 0.29,1.57 0.4,2.31 0.02,0.11 0.01,0.18 0.03,0.29l0.31 1.77c0.03,0.13 0.01,0.17 0.03,0.29 0.02,0.13 0.04,0.1 0.07,0.25 0.02,0.12 0.02,0.15 0.04,0.27l0.19 1c0.03,0.12 0.03,0.41 0.05,0.55l0.15 0.73c0.03,0.12 0.01,0.17 0.03,0.28 0.01,0.08 0.05,0.13 0.06,0.23l0.17 1.06c0.03,0.14 0.05,0.16 0.07,0.25 0.05,0.25 0.02,0.53 0.1,0.78l0.33 2.02c0.01,0.16 0.04,0.11 0.06,0.25 0.01,0.1 0.01,0.16 0.03,0.26 0.03,0.18 0.04,0.36 0.11,0.53 0.07,0.18 -0.01,0.14 0.06,0.43 0.03,0.11 0.02,0.11 0.03,0.22l0.2 1.13c0,0.01 0,0.02 0,0.03l0.18 0.98c0.04,0.38 0.18,0.94 0.21,1.3 0.02,0.19 0.04,0.32 0.06,0.47 0.03,0.19 0.08,0.22 0.08,0.41 0.01,0.22 0.05,0.23 0.07,0.45 0.02,0.17 0.05,0.23 0.07,0.42 0.03,0.25 0.1,0.17 0.11,0.42l0.06 0.6c0.02,0.09 0.07,0.2 0.07,0.21 0,0.2 -0.07,0.02 -0,0.24 0.04,0.15 0.02,0.11 0.04,0.28 0.02,0.16 0.04,0.11 0.06,0.25 0.02,0.12 0.01,0.18 0.03,0.28l0.35 1.91c0.05,0.12 0.02,0.09 0.03,0.26l0.27 1.66c0.02,0.17 0.08,0.32 0.1,0.54l0.04 0.17c0.01,0.03 0.01,-0.03 0.03,0.08l0.67 4.12c0.04,0.27 0.02,0.29 0.24,0.39l2.62 1.28c0.09,0.04 0.13,0.06 0.21,0.1l0.67 0.32c0.11,0.06 0.11,0.04 0.22,0.09 0.09,0.04 0.13,0.08 0.22,0.13l0.22 0.1c0.3,0.12 0.57,0.3 0.87,0.43 0.04,0.02 0.05,0.02 0.1,0.04l0.33 0.17c0.04,0.01 0.09,0.03 0.13,0.05l1.17 0.58c0.06,0.03 0.14,0.06 0.21,0.1l1.75 0.85c0.09,0.04 0.14,0.06 0.22,0.1 0.09,0.05 0.13,0.07 0.23,0.12 0.1,0.05 0.11,0.05 0.21,0.1l2.18 1.06c0.11,0.05 0.14,0.07 0.24,0.12l2.25 1.09c0.32,0.13 0.6,0.32 0.92,0.45 0.01,0 0.02,0.01 0.02,0.01l1.58 0.77c0.03,0.02 0.05,0.03 0.09,0.05 0.08,0.04 0.05,0.02 0.12,0.05l1.91 1.05c0.08,0.05 0.13,0.05 0.21,0.11 0.08,0.05 0.11,0.08 0.19,0.12 0.16,0.09 0.29,0.15 0.44,0.23 0.14,0.08 0.25,0.14 0.41,0.23l1.65 0.92c0.09,0.04 0.13,0.06 0.21,0.11l0.43 0.24c0.08,0.04 0.13,0.07 0.21,0.11l0.83 0.47c0.07,0.04 0.13,0.08 0.2,0.11l1.65 0.92c0.08,0.05 0.15,0.09 0.22,0.13 0.08,0.04 0.14,0.07 0.21,0.11 0.07,0.04 0.13,0.08 0.2,0.12 0.15,0.09 0.28,0.15 0.43,0.23l0.41 0.22c0.09,0.05 0.08,0.06 0.2,0.12l1.45 0.8c0.09,0.05 0.11,0.06 0.2,0.11 0.03,0.01 0.09,0.05 0.11,0.06l4.9 2.73c0.07,0.04 0.13,0.08 0.2,0.12 0.08,0.04 0.12,0.06 0.2,0.11l1.02 0.56c0.01,0 0.02,0.01 0.02,0.01 0.15,0.09 0.27,0.15 0.43,0.24l3.12 1.73c0.09,0.05 0.14,0.07 0.23,0.12 0,0 0.08,0.05 0.09,0.05 0.43,0.28 0.91,0.5 1.36,0.75l2.02 1.11c0.52,0.27 1.02,0.59 1.54,0.85l2.07 1.16c0.55,0.29 0.37,0.3 1.34,-0.27l3.07 -1.71c0.85,-0.5 1.75,-0.93 2.59,-1.45l0.88 -0.49c0.1,-0.06 0.14,-0.06 0.23,-0.12l1.12 -0.64c0.08,-0.04 0.14,-0.07 0.23,-0.12l1.13 -0.63c0.09,-0.05 0.15,-0.07 0.23,-0.12l2.17 -1.21c0.01,-0 0.02,-0.01 0.02,-0.01l2.08 -1.16c0.1,-0.05 0.14,-0.08 0.23,-0.12l2.03 -1.13c0.08,-0.05 0.15,-0.09 0.22,-0.13 0.1,-0.05 0.13,-0.07 0.22,-0.13 0.01,-0 0.04,-0.02 0.04,-0.03l2.14 -1.2c0.01,-0 0.01,-0.01 0.02,-0.01l1.86 -1.03c0.23,-0.11 0.44,-0.28 0.67,-0.38 0.07,-0.03 0.05,-0.02 0.12,-0.05 0.02,-0.01 0.09,-0.05 0.11,-0.06l1.13 -0.63c0.15,-0.09 0.3,-0.16 0.45,-0.26 0.4,-0.26 1.12,-0.63 1.58,-0.88l1.58 -0.88c0.15,-0.09 0.3,-0.16 0.46,-0.25l1.35 -0.76c0.08,-0.05 0.13,-0.07 0.2,-0.11l0.44 -0.26c0.01,-0 0.01,-0.01 0.02,-0.02 0.01,-0 0.01,-0.01 0.02,-0.02 0.18,-0.14 0.52,-0.29 0.73,-0.43 0.07,-0.04 0.04,-0.02 0.11,-0.06l0.88 -0.53c0.05,-0.03 0.05,-0.04 0.11,-0.07l0.33 -0.2c0.38,-0.19 0.72,-0.45 1.09,-0.67 0.08,-0.04 0.14,-0.07 0.23,-0.12l1.09 -0.67c0.54,-0.35 1.12,-0.63 1.65,-0.99 0.05,-0.03 0.04,-0.03 0.11,-0.07l1.76 -1.06c0.16,-0.1 0.27,-0.17 0.44,-0.26l2.67 -1.62c0.01,-0 0.01,-0.01 0.02,-0.01l2.35 -1.41c0.09,-0.06 0.12,-0.07 0.22,-0.13 0.45,-0.25 0.86,-0.56 1.31,-0.8 0.21,-0.11 0.75,-0.38 0.88,-0.53 0.1,-0.13 0.14,-0.67 0.18,-0.88l0.15 -0.9c0.03,-0.25 0.2,-0.85 0.24,-1.17l0.14 -0.91c0.03,-0.08 0.01,0.03 0.04,-0.14 0.04,-0.24 0.05,-0.54 0.13,-0.75l0.72 -3.85c0.03,-0.41 0.19,-0.77 0.18,-1.18 -0,-0.14 0.07,-0.32 0.11,-0.56l0.29 -1.47c0.03,-0.22 0.03,-0.42 0.09,-0.61 0.04,-0.14 0.04,-0.09 0.06,-0.29 0.01,-0.11 0.02,-0.19 0.03,-0.32 0.03,-0.2 0.05,-0.05 0.07,-0.28l0.39 -2.07c0,-0.15 -0.06,0.01 0.02,-0.23 0.04,-0.11 0.05,-0.16 0.07,-0.29l0.11 -0.59c0.03,-0.12 0,-0.2 0.04,-0.32 0.04,-0.14 0.02,0.03 0.04,-0.13 0.01,-0.06 0,-0.1 0.01,-0.16 0.04,-0.26 0.14,-0.57 0.17,-0.84 0.05,-0.47 0.12,-0.55 0.16,-0.89 0.02,-0.18 0.02,-0.31 0.07,-0.46l0.19 -1.01c0.01,-0.25 0.04,-0.12 0.06,-0.29 0.07,-0.43 0.16,-1.14 0.26,-1.5l0.27 -1.45c0.01,-0.09 -0,-0.07 0.02,-0.15 0.06,-0.22 0.18,-0.81 0.17,-1.03 -0,-0.06 -0.01,-0.03 0,-0.1l0.73 -3.98c0.05,-0.29 0.12,-0.45 0.17,-0.85l0.6 -3.27c0.02,-0.14 0.04,-0.1 0.07,-0.29l0.1 -0.6c0.04,-0.21 0,-0.1 0,-0.28 0,-0.16 -0,0.02 0.04,-0.1 0.02,-0.07 0.02,-0.05 0.04,-0.14 0.02,-0.08 0.04,-0.18 0.06,-0.29l0.22 -1.22c0,-0.01 0.01,-0.02 0.01,-0.03 0.01,-0.05 0.01,-0.04 0.01,-0.09l0.34 -1.91c0.03,-0.13 -0,-0.19 0.04,-0.32 0.03,-0.1 0.06,-0.16 0.08,-0.27 0.02,-0.13 0.04,-0.17 0.06,-0.29 0.02,-0.11 0,-0.18 0.03,-0.28l0.48 -2.65c0.03,-0.26 0.14,-0.58 0.17,-0.88l0.1 -0.6c0,-0.06 -0,-0.12 0,-0.17 0.02,-0.17 0.02,-0.07 0.06,-0.19l0.68 -3.75c0.04,-0.33 0.15,-0.55 0.17,-0.88 0.02,-0.21 0.02,-0.11 0.05,-0.26l0.17 -1.06c0.09,-0.25 0.1,-0.5 0.13,-0.75l0.12 -0.55c0.03,-0.1 0.02,-0.22 0.04,-0.31l0.19 -1.11c0.03,-0.17 0.04,-0.02 0.06,-0.22 0.01,-0.06 -0,-0.12 0,-0.17l0.3 -1.49c0.01,-0.06 0.01,-0.04 0.01,-0.09l0.08 -0.45c0.02,-0.19 0.08,-0.38 0.11,-0.59l0.1 -0.57c0.02,-0.2 0.04,-0.14 0.06,-0.29 0.01,-0.06 0,-0.11 0.01,-0.16l0.29 -1.61c0.02,-0.09 0.05,-0.16 0.08,-0.28 0.04,-0.2 0.02,-0.43 0.08,-0.62l0.07 -0.28c0.02,-0.14 0.05,-0.19 0.07,-0.29 0.01,-0.07 0,-0.1 0.01,-0.17 0.01,-0.14 0.05,-0.12 0.07,-0.28 0.01,-0.06 0,-0.1 0.01,-0.16l0.33 -1.74c0.05,-0.24 0.03,-0.49 0.11,-0.73l0.1 -0.43c0.04,-0.15 0.04,-0.14 0.05,-0.3l0.36 -2.06c0.02,-0.1 0.02,-0.04 0.05,-0.13 0.02,-0.07 0.01,-0.09 0.01,-0.16l0.42 -2.36c0.02,-0.23 0.02,-0.11 0.07,-0.28l0.33 -1.79c0.11,-0.65 0.24,-1.18 0.24,-1.87l-1.38 -0.73c-0.08,-0.05 -0.13,-0.08 -0.22,-0.14l-0.69 -0.37c-0.38,-0.21 -0.77,-0.4 -1.13,-0.63 -0.56,-0.36 -3.19,-1.78 -3.91,-2.17l-0.44 -0.26c-0.16,-0.09 -0.3,-0.16 -0.46,-0.25l-1.24 -0.69c-0.06,-0.04 -0.05,-0.03 -0.12,-0.06 -0.1,-0.05 -0.13,-0.08 -0.22,-0.13l-2.99 -1.65c-0.61,-0.34 -1.23,-0.66 -1.83,-1.02l-6.61 -3.66c-0.09,-0.05 -0.13,-0.09 -0.22,-0.14l-3.2 -1.76c-0.08,-0.05 -0.15,-0.09 -0.22,-0.13l-0.56 -0.32c-0.52,-0.33 -2.39,-1.31 -3.1,-1.72 -0.09,-0.05 -0.14,-0.08 -0.23,-0.12l-0.63 -0.36c-0.02,-0.01 -0.04,-0.02 -0.07,-0.04l-0.68 -0.37c-0.04,-0.02 -0.08,-0.03 -0.12,-0.06 -0.03,-0.02 -0.06,-0.03 -0.11,-0.06l-2.38 -1.31c-0.04,-0.02 -0.09,-0.06 -0.13,-0.08l-1.36 -0.75c-0.08,-0.04 -0.16,-0.08 -0.23,-0.13l-0.47 -0.27c-0.09,-0.05 -0.14,-0.08 -0.23,-0.12l-1.04 -0.58c-0.01,-0 -0.02,-0.01 -0.02,-0.01l-0.55 -0.3c-0.08,-0.04 -0.15,-0.09 -0.22,-0.13l-1.5 -0.83c-0.01,-0 -0.01,-0.01 -0.02,-0.01l-1.67 -0.93c-0.08,-0.05 -0.17,-0.08 -0.24,-0.11 -0.1,-0.05 -0.13,-0.07 -0.22,-0.13l-2.96 -1.64c-0.1,-0.06 -0.15,-0.08 -0.25,-0.14l-4.31 -2.4c-0.72,-0.43 -1.6,-0.83 -2.28,-1.27 -0.56,-0.36 -1.24,-0.67 -1.83,-1.02l-0.25 -0.14c-0.01,-0 -0.02,-0.01 -0.02,-0.01 -0.03,-0.01 -0.06,-0.04 -0.07,-0.04l-5.87 -3.24c-0.16,0 -0.27,0.02 -0.39,0.1 -0.37,0.23 -0.77,0.39 -1.13,0.63l-1.1 0.62c-0.01,0 -0.02,0.01 -0.02,0.01l-0.93 0.51c-0.1,0.05 -0.15,0.09 -0.25,0.14l-2.95 1.65c-0.08,0.04 -0.15,0.07 -0.23,0.12 -0.06,0.04 -0.04,0.03 -0.11,0.07l-1.27 0.7c-0.09,0.05 -0.15,0.08 -0.23,0.12l-1.6 0.9c-0.09,0.05 -0.15,0.08 -0.23,0.12 -0.09,0.05 -0.13,0.07 -0.23,0.13l-2.18 1.23c-0.01,0 -0.02,0.01 -0.02,0.01l-1.79 0.99c-0.05,0.03 -0.09,0.05 -0.14,0.07l-1.58 0.88c-0.09,0.05 -0.15,0.09 -0.24,0.14 -0.16,0.08 -0.28,0.17 -0.45,0.25l-1.08 0.61c-0.01,0 -0.02,0.01 -0.02,0.01 -0.01,0 -0.02,0.01 -0.02,0.01 -0.08,0.04 -0.17,0.09 -0.25,0.13 -0.08,0.04 -0.14,0.07 -0.23,0.12l-3.43 1.92c-0.15,0.09 -0.3,0.17 -0.46,0.25l-0.68 0.38c-0.48,0.31 -1.09,0.61 -1.61,0.89l-2.05 1.15c-0.78,0.39 -1.52,0.85 -2.29,1.27l-1.6 0.9c-0.17,0.1 -0.31,0.16 -0.48,0.26l-4.56 2.54c-0.08,0.04 -0.14,0.07 -0.23,0.12l-0.56 0.32c-0.01,0 -0.02,0.01 -0.02,0.01 -0.01,0 -0.02,0.01 -0.02,0.01l-0.77 0.43c-0.1,0.05 -0.14,0.08 -0.23,0.13l-1.38 0.77c-0.08,0.04 -0.15,0.07 -0.23,0.12l-0.79 0.44c-0.07,0.04 -0.04,0.02 -0.11,0.06l-0.52 0.29c-0.01,0 -0.02,0.01 -0.02,0.01 -0.01,0 -0.02,0.01 -0.02,0.01l-9.23 5.15c-0.5,0.24 -0.94,0.53 -1.43,0.79l-1.83 1.02c-0.92,0.49 -1.81,1.04 -2.73,1.52l-2.5 1.4c-0.1,0.05 -0.2,0.06 -0.2,0.18zm58.47 89.36c0.09,0.05 0.27,0.48 0.29,0.62 0.05,0.49 0.01,3.86 0.01,4.61 0,0.58 -0.04,1.3 0.01,1.87 0.35,-0.09 0.8,-0.44 1.16,-0.63 0.15,-0.08 0.25,-0.14 0.38,-0.21l1.54 -0.86c1.09,-0.59 2.03,-1.14 3.08,-1.71 0.53,-0.29 1.01,-0.58 1.54,-0.86l1.15 -0.64c0.14,-0.08 0.25,-0.13 0.39,-0.21 0.52,-0.29 1.01,-0.57 1.53,-0.86 0.25,-0.14 0.5,-0.27 0.77,-0.42 0.28,-0.16 0.52,-0.28 0.79,-0.44l1.34 -0.74c0.06,-0.03 0.13,-0.08 0.2,-0.12l8.07 -4.49c0.14,-0.09 0.26,-0.14 0.38,-0.21l1.15 -0.65c0.16,-0.08 0.26,-0.13 0.39,-0.21l0.8 -0.44c0.15,-0.07 0.25,-0.14 0.38,-0.22l7.95 -4.61c0.28,-0.17 0.45,-0.29 0.74,-0.45l2.24 -1.35c0.27,-0.17 0.5,-0.28 0.76,-0.46 0.35,-0.25 0.75,-0.45 1.12,-0.67l5.25 -3.16c0.13,-0.08 0.24,-0.15 0.37,-0.23 0.26,-0.16 0.51,-0.3 0.75,-0.45 0.39,-0.24 0.45,-0.13 0.52,-0.69 0.01,-0.11 0.03,-0.12 0.06,-0.22 0.02,-0.11 0.01,-0.18 0.03,-0.29 0.02,-0.11 0.08,-0.35 0.11,-0.46 0.08,-0.32 0.1,-0.73 0.16,-1.05 0.02,-0.11 0.04,-0.07 0.06,-0.22 0.02,-0.15 0.01,-0.14 0.05,-0.26 0.04,-0.17 0.04,-0.31 0.09,-0.5l0.46 -2.56c0.01,-0.11 0.03,-0.14 0.05,-0.24l0.23 -1.29c0.08,-0.33 0.1,-0.67 0.19,-1 0.06,-0.21 0.02,-0.31 0.09,-0.52l0.64 -3.55c0.08,-0.4 0.28,-1.75 0.37,-2.02l2.95 -16.25c0.04,-0.14 0.07,-0.36 0.09,-0.51l1.04 -5.8c0.02,-0.1 0.05,-0.14 0.06,-0.25 0.03,-0.2 0.08,-0.35 0.09,-0.53 0.08,-0.72 0.25,-1.37 0.35,-2.06l0.1 -0.5c0.12,-0.51 0.26,-1.72 0.36,-2.02 0.08,-0.24 0.1,-0.5 0.13,-0.76l0.15 -0.76c0.05,-0.36 0.15,-0.7 0.17,-1.04l0.66 -3.5c0.02,-0.09 0.02,-0.17 0.03,-0.27 0.02,-0.18 0.04,-0.13 0.06,-0.25 0.02,-0.09 0.01,-0.17 0.03,-0.27 0.01,-0.08 0.05,-0.13 0.06,-0.23l0.64 -3.57c0.07,-0.34 0.13,-0.7 0.2,-1.01l0.12 -0.78c0.09,-0.39 0.19,-0.85 0.24,-1.28l0.23 -1.24c0.08,-0.28 0.15,-0.97 0.23,-1.29 0.03,-0.13 0.08,-0.34 0.11,-0.47 0.04,-0.18 0.04,-0.36 0.08,-0.54l0.13 -0.74c0.02,-0.09 0.05,-0.16 0.06,-0.26 0.01,-0.1 0,-0.16 0.03,-0.25 0.04,-0.11 0.04,-0.04 0.06,-0.24 0.03,-0.36 0.13,-0.66 0.18,-1.06 0.03,-0.17 0.06,-0.34 0.09,-0.51 0.03,-0.19 0.05,-0.35 0.08,-0.53 0.02,-0.1 0.04,-0.08 0.06,-0.2 0.02,-0.1 0.01,-0.2 0.03,-0.3l0.11 -0.48c0.03,-0.09 0.08,-0.39 0.1,-0.49l0.36 -2.03c0.06,-0.52 0.17,-1 0.27,-1.54 0.06,-0.31 0.11,-0.7 0.18,-1.02 0.05,-0.27 0.19,-0.78 0.17,-1.06 -0.43,-0.18 -1.3,-0.72 -1.79,-0.99l-0.89 -0.48c-0.85,-0.5 -1.85,-1 -2.69,-1.5l-3.6 -1.99c-0.16,-0.08 -0.27,-0.16 -0.43,-0.24 -0.16,-0.08 -0.3,-0.16 -0.46,-0.25l-7.16 -3.98c-0.34,-0.19 -0.6,-0.32 -0.91,-0.5l-0.43 -0.24c-0.15,-0.09 -0.3,-0.16 -0.46,-0.25 -0.31,-0.19 -0.6,-0.33 -0.91,-0.5 -1.35,-0.74 -2.68,-1.54 -4.02,-2.24 -0.15,-0.08 -0.3,-0.17 -0.44,-0.25 -0.09,-0.05 -0.17,-0.09 -0.23,-0.12l-2.46 -1.37c-0.3,-0.18 -0.6,-0.34 -0.91,-0.5 -0.58,-0.3 -1.21,-0.69 -1.77,-1l-6.72 -3.73c-0.16,-0.09 -0.31,-0.17 -0.46,-0.25l-2.69 -1.49c-0.15,-0.08 -0.24,-0.16 -0.42,-0.25 -0.2,-0.1 -0.27,-0.15 -0.46,-0.25 -1.66,-0.91 -3.24,-1.83 -4.93,-2.74l-1.36 -0.75c-1.33,-0.74 -2.7,-1.46 -4.03,-2.23 -0.07,-0.04 -0.14,-0.09 -0.22,-0.13 -0.09,-0.05 -0.16,-0.07 -0.23,-0.12 -0.32,-0.19 -0.56,-0.32 -0.9,-0.5l-5.42 -2.99c-0.05,0.61 -0.01,6.26 -0.01,7.04 0,0.82 0.07,6.77 -0.03,7.03l-0.43 0.01 -0.14 -0.03 -0.01 -13.89c-0.29,0.07 -0.64,0.33 -0.92,0.48 -0.28,0.15 -0.58,0.31 -0.89,0.49 -0.3,0.17 -0.58,0.33 -0.88,0.49l-4.48 2.49c-1.04,0.58 -2.05,1.2 -3.1,1.74 -1.07,0.55 -2.07,1.19 -3.12,1.74l-4.47 2.49c-0.61,0.34 -1.2,0.66 -1.79,0.99l-8.92 4.97c-1.21,0.67 -2.39,1.29 -3.57,1.99 -0.58,0.34 -1.19,0.65 -1.78,0.99 -0.93,0.54 -2.61,1.49 -3.57,1.99 -0.3,0.16 -0.58,0.33 -0.88,0.49l-2.69 1.49c-0.57,0.31 -1.2,0.72 -1.78,1 -0.46,0.23 -1.29,0.73 -1.79,0.99 -0.16,0.09 -0.27,0.16 -0.42,0.24l-2.23 1.25c-0.28,0.17 -0.63,0.34 -0.91,0.5 -0.87,0.51 -1.79,0.97 -2.67,1.49l-3.12 1.74c-0.15,0.08 -0.29,0.15 -0.45,0.25 -0.29,0.18 -0.62,0.34 -0.91,0.51l-1.56 0.87c-0.06,0.03 -0.16,0.07 -0.22,0.12 -0.02,0.25 0.34,2.08 0.4,2.54 0.08,0.53 0.2,1.02 0.26,1.54 0.04,0.36 0.14,0.66 0.17,1.02 0.09,0.99 0.38,2.06 0.51,3.09 0.06,0.49 0.2,1.05 0.26,1.54 0.1,0.84 0.32,1.72 0.42,2.57 0.07,0.55 0.25,1.44 0.35,2.04l0.43 2.53c0.06,0.32 0.06,0.74 0.17,1.03 0.14,0.39 0.22,1.52 0.35,2.03 0.05,0.19 0.04,0.34 0.08,0.53 0.13,0.63 0.21,1.38 0.36,2.02 0.04,0.17 0.03,0.38 0.07,0.54 0.04,0.14 0.04,0.36 0.08,0.51 0.17,0.58 0.26,1.41 0.36,2.01 0.03,0.2 0.03,0.35 0.08,0.54 0.23,0.97 0.3,2.25 0.52,3.07 0.04,0.14 0.08,0.36 0.1,0.48 0.01,0.09 0.01,0.18 0.03,0.27l0.14 0.78c0.07,0.7 0.25,1.39 0.35,2.04l0.44 2.81c0.03,0.16 0.04,0.1 0.06,0.25 0.06,0.33 0.13,0.71 0.17,1.03l0.35 2.03c0.19,1.34 0.52,2.76 0.68,4.11 0.09,0.74 0.37,2.21 0.52,3.05l0.16 1.05c0.02,0.1 0.03,0.09 0.05,0.22l0.12 0.8c0.06,0.31 0.12,0.67 0.19,0.99 0.17,0.77 0.26,1.75 0.42,2.59 0.01,0.06 0.04,0.16 0.05,0.23l0.13 0.78c0.16,0.66 0.21,1.36 0.35,2.03 0.03,0.16 0.07,0.32 0.1,0.49 0.36,2.05 0.65,4.13 1.02,6.18 0.12,0.66 0.3,1.41 0.35,2.05 0.05,0.65 0.26,1.41 0.34,2.04 0.09,0.7 0.24,1.32 0.34,2.02 0.09,0.67 0.25,1.36 0.35,2.04 0.1,0.68 0.23,1.38 0.35,2.02 0.09,0.45 0.12,0.38 0.6,0.6 0.28,0.13 0.54,0.26 0.81,0.39 1.03,0.51 2.17,1.06 3.21,1.57l6.42 3.14c1.35,0.63 2.68,1.33 4.03,1.95 0.22,0.1 0.58,0.26 0.81,0.39 0.52,0.29 1.06,0.52 1.57,0.82 0.76,0.44 1.57,0.83 2.31,1.28 0.61,0.37 1.8,0.96 2.28,1.27 0.37,0.24 1.14,0.63 1.55,0.85 1.01,0.55 2.06,1.19 3.07,1.71 1.02,0.52 2.04,1.18 3.07,1.71 1.43,0.74 3.14,1.73 4.61,2.56 0.51,0.29 1.02,0.56 1.55,0.85l7.68 4.27c0.22,0.13 0.53,0.29 0.76,0.43 0.08,0.05 0.7,0.4 0.78,0.41 0.09,-1.08 -0.07,-5.68 0.02,-6.29 0.03,-0.2 0.22,-0.32 0.3,-0.59z"/>
   <g>
    <path class="fil0" d="M55.27 36.56l-0.01 0.01c-0,0 -0,0 -0.01,0 -0.01,0.03 -0.08,0.03 -0.15,0.03 -0.01,0.02 -0.02,0.05 -0.04,0.1 -0.08,0.33 -0.04,0.72 -0.04,1.06 -0,0.89 0.12,1.77 0.33,2.63 0.26,1.05 0.77,2.13 1.55,2.88 0.17,0.16 0.23,0.2 0.41,0.33 0.17,0.12 0.27,0.16 0.46,0.28 0.38,0.23 0.96,0.2 1.21,0.26 0,0.09 -0,0.14 -0.03,0.19 -1.26,0.16 -1.11,-0.09 -2.46,0.46 -0.38,0.15 -0.82,0.44 -1.14,0.73 -0.48,0.44 -0.81,1.06 -0.79,1.76 0,0.17 0.04,0.53 0.09,0.67 0.05,0.13 0.15,0.37 0.23,0.47 0.76,1.03 0.86,0.81 1.55,1.33 0.01,0.31 0.07,1.23 -0.09,1.43 -0.27,0.35 -0.62,0.67 -0.9,1l-0.52 0.6c-0.69,0.83 -1.41,1.59 -2.12,2.42 -0.12,0.14 -0.28,0.27 -0.38,0.39 -0.13,0.16 -0.19,0.24 -0.33,0.41 -0.35,0.41 -0.64,0.5 -0.5,0.94l4.24 0c0.03,0.13 0.1,1.13 -0.01,1.23 -0.11,0.09 -2.82,0.04 -3.21,0.04 -0.33,0 -0.5,-0.04 -0.7,0.12 -0.32,0.26 -0.53,0.56 -0.69,0.93 -0.27,0.59 -0.03,1.55 0.32,1.99 0.07,0.09 0.32,0.38 0.4,0.42 0.06,0.03 0.29,0.1 0.33,0.1 0.36,0.04 1.58,-0 2.01,-0.01 0.27,-0 0.54,-0 0.81,-0 0.12,0 0.68,-0.05 0.76,0.04 0.07,0.09 0.09,1.2 0.09,1.39 0,0.19 0.05,1.37 -0.03,1.46 -0.09,0.09 -2.97,0.04 -3.32,0.04l-2.95 0c-0.49,-0 -0.37,0.06 -0.67,0.59 -0.15,0.26 -0.37,0.51 -0.48,0.78l-2.17 3.67c-0.12,0.26 -0.34,0.54 -0.47,0.8l-2.8 4.68c-0.21,0.36 -1.18,1.87 -1.17,2.08 1.64,0.06 3.31,0.01 4.95,0.01 0.45,0 1,-0.04 1.44,-0 0.06,0 0.05,0.01 0.09,0.02 0.01,0 0.02,0.02 0.03,0.01 0.12,-0.2 0.05,4.08 0.06,4.41 0.6,0.4 1.34,0.82 1.98,1.22l7.89 4.78c0.25,0.15 0.37,0.3 0.69,0.36l-0 7.76c-0.15,0.01 -0.17,-0.02 -0.3,-0.07 -0.02,-0.01 -0.1,-0.03 -0.11,-0.04 -0.16,-0.05 -0.28,-0.06 -0.44,-0.12 -0.28,-0.12 -0.56,-0.17 -0.85,-0.28l-3.69 -1.34c-0.13,-0.05 -0.28,-0.11 -0.4,-0.16 -0.3,-0.11 -0.51,-0.22 -0.81,-0.28 -0.11,-0.44 -0.04,-1.03 -0.17,-1.51 -0.23,-0.84 -0.78,-1.65 -1.55,-2.08 -0.68,-0.37 -1.35,-0.44 -2.12,-0.2 -0.78,0.25 -1.05,0.71 -1.48,1.14 -0.04,0.1 -0.08,0.15 -0.15,0.25 -0.36,0.59 -0.6,1.68 -0.5,2.38 0.06,0.47 0.17,0.84 0.36,1.25 0.12,0.25 0.15,0.34 0.29,0.53 0.93,1.33 2.47,1.79 3.9,0.8 0.25,-0.17 0.66,-0.59 0.79,-0.85 0.21,-0.01 0.89,0.28 1.09,0.36l3.08 1.14c0.17,0.09 0.06,-0.02 0.12,0.12 -0.01,0.01 -0.02,0.01 -0.02,0.02l-0.23 0.13c-0.8,0.44 -0.86,0.42 -1.8,1.01 -1.32,0.84 -2.35,1.88 -3.24,3.16 -0.24,0.35 -1.07,1.72 -1.07,2.19 0.17,0.11 1.28,0.59 1.45,0.57 0.18,-0.34 0.24,-0.56 0.54,-1.1 0.88,-1.57 2.31,-2.87 3.88,-3.71 0.67,-0.36 1.01,-0.56 1.74,-0.8 0.28,-0.09 1.01,-0.33 1.31,-0.35 0.08,1.24 -0.12,9.19 0.08,9.53 0.1,0.04 0.26,0.05 0.37,0.02 0.2,-0.27 0.16,-4.22 0.16,-4.81 0,-0.96 0.06,-4.24 -0.05,-4.94 0.31,-0 0.49,0.13 0.75,0.17 0.3,0.05 0.63,0.17 0.92,0.24 1.95,0.47 4.12,1.98 5.32,3.49l0.73 1.06c0.31,0.48 0.57,1.15 0.59,1.19 0.03,0 1.34,-0.5 1.39,-0.58 0.1,-0.19 -0.6,-1.42 -0.75,-1.67 -0.56,-0.95 -1.36,-1.93 -2.21,-2.64 -0.44,-0.37 -0.9,-0.74 -1.39,-1.04 -0.31,-0.2 -0.68,-0.4 -1.02,-0.6l-1.09 -0.53c0.08,-0.2 0.53,-0.29 0.72,-0.35 0.24,-0.07 0.46,-0.18 0.71,-0.26 0.89,-0.29 3.21,-1.2 3.96,-1.53 0.13,-0.06 0.23,-0.11 0.41,-0.1 0.39,0.8 1.04,1.59 1.72,2.14 0.08,0.07 0.14,0.1 0.22,0.17 0.21,0.18 0.42,0.35 0.67,0.49 0.35,0.2 0.66,0.33 1.04,0.47l0.62 0.14c0.52,0.04 0.93,0.01 1.44,0.01 0.31,-0 0.43,-0.07 0.71,-0.08 0.25,-0.01 0.12,-0.02 0.3,-0.07 0.46,-0.14 0.99,-0.2 1.41,-0.47 -0.02,-0.18 -0.35,-0.6 -0.45,-0.73 -0.48,-0.67 -1.1,-1.32 -1.72,-1.83 -0.64,-0.51 -1.15,-0.83 -1.91,-1.08 -0.51,-0.17 -1.37,-0.13 -1.55,-0.21 0.08,-0.16 -0.02,0 0.06,-0.08 0.01,-0.01 0.06,-0.05 0.07,-0.05 0.27,-0.16 0.61,-0.27 0.89,-0.41 0.29,-0.15 0.67,-0.31 0.99,-0.48l1.47 -0.78c0.62,-0.31 0.42,-0.35 0.88,0.17 0.65,0.75 1.81,1.5 2.74,1.82 0.19,0.06 0.74,0.2 0.93,0.21 0.67,0.02 1.32,-0.03 1.95,-0.22 0.08,-0.02 0.06,-0.01 0.15,-0.03 0.32,-0.06 2.24,-0.84 2.24,-1.1 -0.07,-0.2 -0.81,-0.89 -1.05,-1.08 -0.59,-0.47 -1.26,-0.95 -1.95,-1.28 -0.29,-0.14 -0.41,-0.2 -0.76,-0.3 -0.6,-0.17 -1.33,-0.16 -1.96,-0.12 0.03,-0.13 -0,-0.07 0.1,-0.16 0.19,-0.19 0.45,-0.32 0.64,-0.48l1.72 -1.48c0.18,-0.16 0.3,-0.3 0.46,-0.46 1.09,-1.1 0.75,-1.03 1.45,-0.67 0.25,0.13 0.55,0.21 0.84,0.32l0.95 0.21c0.47,0.04 0.97,0.12 1.42,0.03 0.13,-0.03 0.24,-0.01 0.36,-0.03 0.46,-0.1 0.94,-0.31 1.35,-0.55 0.19,-0.11 0.28,-0.16 0.47,-0.3 0.09,-0.07 0.15,-0.1 0.23,-0.16 0.42,-0.28 2.03,-1.72 2.02,-2.18 -0.41,-0.24 -0.89,-0.41 -1.33,-0.58 -0.34,-0.13 -0.7,-0.15 -1.04,-0.27l-0.11 -0.03c-0.84,-0.09 -1.81,-0.2 -2.61,0.13l-0.66 0.29c-0.11,0.05 -0.22,0.1 -0.33,0.14 0.01,-0.22 0.39,-0.73 0.52,-0.97 0.19,-0.34 0.33,-0.59 0.51,-0.93l0.94 -1.94c0.07,0 0.25,0.06 0.34,0.08 0.31,0.09 0.69,0.15 1.03,0.16 0.27,0.01 0.54,0 0.81,-0 0.45,-0.01 0.46,-0.07 0.74,-0.09 0.27,-0.02 0.71,-0.17 0.98,-0.25 0.13,-0.04 0.14,-0.06 0.26,-0.11 1.07,-0.47 1.9,-1.37 2.51,-2.31 0.21,-0.32 1.08,-1.68 1.06,-2.13 -0.26,-0.09 -0.8,-0.13 -1.12,-0.17 -0.53,-0.07 -0.68,0.05 -1.12,0.06 -0.31,0.01 -0.32,0.04 -0.57,0.07 -0.45,0.05 -1.1,0.2 -1.5,0.39 -1.63,0.78 -2.3,2.2 -2.68,2.41 0.01,-0.24 0.42,-1.4 0.49,-1.68 0.18,-0.66 0.36,-1.28 0.51,-1.97 0.03,-0.14 0.03,-0.07 0.07,-0.22 0.06,-0.3 0.19,-1.07 0.28,-1.32l0.33 -1.81c0.4,-0.04 0.91,-0.27 1.24,-0.42 0.69,-0.32 1.35,-0.83 1.89,-1.37 0.34,-0.33 0.46,-0.47 0.73,-0.89 0.47,-0.72 0.96,-2.08 1.09,-3.02l0.17 -1.06c0.04,-0.38 0.03,-0.8 -0,-1.18 -0.15,0 -0.67,0.21 -0.84,0.29 -0.39,0.18 -0.76,0.36 -1.12,0.6 -0.33,0.22 -0.69,0.45 -0.97,0.71 -0.71,0.65 -1.1,0.99 -1.54,1.87 -0.08,0.16 -0.25,0.7 -0.4,0.75 -0.04,-0.08 -0.04,-0.18 -0.04,-0.3 0,-0.1 0,-0.21 0,-0.32l-0.24 -2.47c-0.08,-0.39 -0.21,-0.9 -0.19,-1.3 0.77,-0.27 1.43,-0.82 1.99,-1.35 0.27,-0.25 0.54,-0.59 0.78,-0.87 0.26,-0.32 0.46,-0.61 0.65,-1 0.22,-0.44 0.31,-0.71 0.44,-1.26 0.06,-0.23 0.2,-0.78 0.22,-1.03 0.01,-0.13 -0,-0.25 0.01,-0.39 0.06,-0.53 0.09,-1 0.07,-1.59 -0.01,-0.21 -0.1,-1.25 -0.18,-1.47 -0.17,-0.01 -0.36,0.15 -0.5,0.24 -0.15,0.09 -0.27,0.17 -0.42,0.28 -0.98,0.74 -2.2,1.96 -2.67,3.1 -0.41,1.01 -0.29,0.93 -0.5,1.67 -0.06,0.21 -0.05,0.39 -0.11,0.6 -0.07,0.26 -0.05,1.12 -0.14,1.29 -0.11,-0.08 -0.12,-0.25 -0.16,-0.38l-0.32 -1.24c-0.07,-0.25 -0.15,-0.51 -0.24,-0.78 -0.05,-0.15 -0.08,-0.24 -0.13,-0.4l-0.11 -0.37c-0.32,-0.74 -0.51,-1.52 -0.83,-2.26 -0.06,-0.14 -0.09,-0.25 -0.14,-0.39 -0.2,-0.52 -0.04,-0.36 0.39,-0.72 0.47,-0.39 0.86,-0.79 1.22,-1.3 0.23,-0.32 0.46,-0.66 0.66,-1.03 0.28,-0.53 0.3,-0.62 0.53,-1.17 0.23,-0.56 0.33,-1.56 0.32,-2.2 -0,-0.26 -0.04,-0.52 -0.05,-0.78 -0.02,-0.52 -0.1,-1.05 -0.2,-1.51 -0.08,-0.38 -0.16,-0.93 -0.36,-1.28 -0.15,-0.02 -0.17,0.04 -0.24,0.11 -0.39,0.35 -0.74,0.72 -1.08,1.14 -0.51,0.64 -0.89,1.29 -1.28,2.02 -0.17,0.31 -0.32,0.7 -0.4,1.06 -0.16,0.72 -0.12,0.67 -0.19,1.31 -0.05,0.43 -0.07,0.97 -0.01,1.43 0.03,0.24 0.01,0.49 0.04,0.72 0.03,0.23 0.11,0.33 0.07,0.65 -0.12,-0.06 -0.06,-0.01 -0.13,-0.15l-0.21 -0.45c-0.1,-0.21 -0.17,-0.42 -0.27,-0.61l-1.2 -2.38c-0.89,-1.72 -0.76,-0.8 0.28,-2.03 0.26,-0.31 0.52,-0.67 0.72,-1.01 0.79,-1.35 1.19,-2.37 1.18,-3.97 -0,-0.46 0.03,-0.37 -0.06,-0.79 -0.03,-0.13 -0.02,-0.28 -0.03,-0.41 -0.07,-0.58 -0.51,-2.49 -0.87,-2.97 -0.26,0.1 -1.17,1.42 -1.35,1.72l-0.29 0.49c-0.73,1.36 -1.15,2.63 -1.03,4.32 0.02,0.34 0.09,1.01 0.19,1.36 0.05,0.18 0.09,0.44 0.13,0.63 0.05,0.23 0.11,0.4 0.11,0.65 -0.12,-0.05 -0.04,0.01 -0.12,-0.1l-1.18 -1.95c-0.23,-0.35 -0.4,-0.66 -0.65,-1.03 -0.67,-1 -1.36,-1.97 -2.03,-2.97l-1.44 -1.91c-0.56,-0.67 -0.38,-0.47 -0.63,-1.07 -0.32,-0.77 -0.67,-1.5 -1.17,-2.17 -0.37,-0.51 -0.72,-0.93 -1.21,-1.28 -0.83,-0.59 -1.47,-0.71 -2.34,-0.99 -0.28,-0.09 -1.89,-0.24 -2.18,-0.07 -0,0.22 0.26,0.89 0.34,1.09 0.68,1.58 1.61,3.21 3.2,4.01 0.37,0.19 0.63,0.3 1.01,0.42 0.32,0.11 0.84,0.26 1.16,0.29 0.05,0.25 0.04,0.19 0.18,0.34 0.33,0.37 1.51,1.86 1.58,2.11 -0.13,-0.01 -0.55,-0.28 -0.69,-0.36 -0.35,-0.19 -0.7,-0.34 -1.1,-0.48 -0.12,-0.04 -0.12,-0.02 -0.24,-0.04 -0.14,-0.03 -0.08,-0.04 -0.19,-0.06 -0.18,-0.03 -1.3,-0.05 -1.52,0 -0.13,0.03 -0.06,0.04 -0.23,0.06l-0.43 0.08c-0.46,0.1 -1,0.24 -1.43,0.41 -0.21,0.08 -0.52,0.19 -0.7,0.31 -0,0.42 1.02,1.49 1.35,1.78 0.26,0.23 0.62,0.48 0.88,0.66 0.48,0.33 1.35,0.79 1.91,0.83 0.37,0.03 0.69,0.12 1.05,0.04 0.31,-0.07 0.73,-0.03 1.04,-0.14 0.15,-0.05 -0.06,-0.02 0.14,-0.05 0.31,-0.05 0.63,-0.13 0.93,-0.25 0.04,-0.02 0.09,-0.03 0.12,-0.05 0.31,-0.13 0.53,-0.32 0.9,-0.29 0.05,0.12 0.08,0.15 0.15,0.26 0.24,0.37 1.04,1.52 1.07,1.73 -0.12,-0 -0.51,-0.26 -0.65,-0.33 -0.24,-0.12 -0.46,-0.23 -0.7,-0.31 -0.21,-0.07 -0.45,-0.08 -0.65,-0.13 -0.09,-0.02 -0.07,-0.04 -0.19,-0.05 -0.25,-0.03 -0.72,-0.02 -0.99,-0.01l-1.14 0.17 -0.97 0.29c-0.07,0.03 -0.11,0.03 -0.19,0.06 -0.2,0.07 -0.72,0.25 -0.85,0.36 0.02,0.23 0.42,0.74 0.57,0.93 0.44,0.58 0.96,1.05 1.58,1.44 1.12,0.71 1.98,1.09 3.44,0.9 0.1,-0.01 0.27,-0.01 0.36,-0.03l0.63 -0.15c0.27,-0.06 1.13,-0.42 1.21,-0.43 0.13,-0.02 0.07,-0.01 0.16,0.02 0.15,0.09 1.55,2.95 1.55,3.06 -0.23,-0.09 -1,-0.64 -1.42,-0.83 -0.25,-0.12 -0.55,-0.23 -0.83,-0.3 -0.75,-0.18 -1.32,-0.07 -2.03,-0.02 -0.75,0.06 -1.92,0.51 -2.58,0.77 -0.08,0.53 1.51,2.03 2.12,2.4 0.89,0.54 1.65,0.96 2.75,0.96l1.04 -0.09 0.89 -0.23c0.18,-0.05 0.38,-0.11 0.55,-0.18 0.17,-0.07 0.38,-0.19 0.58,-0.17 0.01,0.01 0.01,0.02 0.02,0.03 0,0.01 0.01,0.02 0.02,0.03l0.73 1.84c0.3,0.82 0.91,2.53 1.04,3.33 -0.17,-0.02 -0.25,-0.17 -0.34,-0.27 -0.26,-0.31 -0.87,-0.92 -1.19,-1.12 -0.38,-0.23 -0.69,-0.44 -1.13,-0.57 -0.06,-0.02 -0.17,-0.05 -0.24,-0.07l-0.67 -0.16c-0.62,-0.11 -1.47,-0.26 -2.09,-0.11 -0.33,0.08 -0.74,-0.02 -0.99,0.13 -0.08,0.51 0.73,1.77 0.94,2.08 0.57,0.84 1.41,1.71 2.33,2.17 0.27,0.13 0.55,0.25 0.84,0.31l0.59 0.14c0.25,0.07 1.91,0.06 2.22,0.02 0.18,-0.02 0.07,-0.06 0.3,-0.06 0.06,0.13 0.06,0.22 0.07,0.4 0.02,0.18 0.05,0.18 0.07,0.35l0.16 1.13c0.01,0.14 -0,0.28 0.02,0.41l0.07 0.79c0.01,0.27 0.07,0.45 0.07,0.77 0.01,0.53 0.07,2 -0.09,2.45 -0.12,-0.05 -0.42,-0.75 -0.5,-0.89 -0.16,-0.29 -0.33,-0.55 -0.52,-0.85 -0.26,-0.4 -0.59,-0.83 -0.95,-1.15 -0.25,-0.23 -0.51,-0.41 -0.78,-0.59 -0.45,-0.29 -1.2,-0.59 -1.71,-0.72 -0.12,-0.03 -0.17,-0.07 -0.26,-0.08 -0.19,-0.04 -0.43,-0.07 -0.6,-0.11 -0.36,-0.1 -0.84,-0.17 -1.26,-0.14 -0,0.89 0.33,1.72 0.71,2.49 0.19,0.4 0.37,0.67 0.58,1 0.61,0.97 1.34,1.65 2.38,2.11l0.07 0.03c0.41,0.16 0.79,0.29 1.27,0.38l0.64 0.14c0.23,0.04 0.54,-0.02 0.72,0.06 0.03,0.2 -0,0.28 -0.05,0.45 -0.03,0.12 -0.04,0.3 -0.06,0.45 -0.06,0.44 -0.18,0.75 -0.24,1.04l-0.53 2.26c-0.12,0.44 -0.56,2 -0.77,2.25 -0.09,-0.1 -0.11,-0.42 -0.13,-0.59 -0.01,-0.13 -0.09,-0.48 -0.12,-0.62 -0.32,-1.26 -0.43,-1.95 -1.3,-3.04 -0.23,-0.3 -0.46,-0.54 -0.71,-0.77 -0.5,-0.45 -1.06,-0.91 -1.64,-1.24 -0.14,-0.08 -0.29,-0.18 -0.46,-0.28 -0.1,-0.05 -0.38,-0.22 -0.46,-0.24l-0.11 0.09c-0.14,1.17 -0.12,1.85 0.08,2.94 0.23,1.26 0.67,2.34 1.47,3.31 0.61,0.73 1.42,1.24 2.23,1.74 0.16,0.1 0.34,0.16 0.52,0.25 0.05,0.32 -0.9,2.01 -1.09,2.35 -0.05,0.09 -0.08,0.14 -0.13,0.23l-0.09 0.16c-0.69,1.11 -1.42,2.24 -2.3,3.18 -0.15,0.15 -0.46,0.6 -0.69,0.67 0.03,-0.2 0.32,-1.04 0.39,-1.33l0.28 -1.35c0.04,-0.89 0.12,-1.5 0.01,-2.39 -0.02,-0.13 -0,-0.28 -0.04,-0.39 -0.16,-0.51 -0.31,-1.07 -0.52,-1.54 -0.41,-0.91 -0.98,-1.81 -1.62,-2.56 -0.08,-0.09 -0.14,-0.16 -0.19,-0.23 -0.06,-0.08 -0.08,-0.16 -0.19,-0.18 -0.16,0.02 -0.51,1.01 -0.57,1.18 -0.13,0.38 -0.31,0.96 -0.34,1.37 -0.08,1 -0.25,2.28 0.05,3.23l0.48 1.28c0.14,0.34 0.43,0.8 0.62,1.1 0.31,0.48 1.14,1.59 1.62,1.86 -0.04,0.15 -0.02,0.11 -0.12,0.21 -0.31,0.31 -1.17,1.12 -1.47,1.35 -0.49,0.37 -0.95,0.78 -1.45,1.12 -0.38,0.25 -1.22,0.92 -1.59,0.99 0.01,-0.24 0.11,-0.39 0.2,-0.58 0.16,-0.33 0.26,-0.68 0.38,-1.04l0.37 -1.41c0.11,-0.53 0.1,-1.15 0.05,-1.69 -0.13,-1.38 -0.59,-2.63 -1.15,-3.85 -0.06,-0.14 -0.15,-0.39 -0.25,-0.47 -0.48,0.24 -1.12,1.52 -1.34,1.98 -0.3,0.65 -0.49,1.49 -0.67,2.21 -0.11,0.44 -0.14,1.46 -0.04,1.89l0.07 0.35c0.02,0.12 0.06,0.21 0.08,0.33 0.08,0.43 0.23,0.88 0.37,1.28l0.49 1.13c0.07,0.14 0.24,0.42 0.24,0.57 -0.06,0.17 -1.81,0.97 -2.19,1.17 -0.11,0.06 -0.21,0.09 -0.31,0.15l-0.65 0.3c-0.23,0.09 -0.42,0.18 -0.66,0.29l-0.65 0.29c-0.19,0.07 -0.5,0.24 -0.67,0.24 0.02,-0.09 0.43,-0.73 0.54,-0.91 0.33,-0.55 0.95,-1.91 1.05,-2.56 0.03,-0.22 0.08,-0.4 0.09,-0.63 0.02,-0.48 0.01,-0.97 0,-1.44 -0.01,-0.29 -0.08,-0.43 -0.09,-0.63 -0.01,-0.27 -0.06,-0.37 -0.08,-0.63 -0.06,-0.57 -0.39,-1.69 -0.61,-2.27 -0.45,0.09 -1.3,1.29 -1.56,1.69 -0.21,0.32 -0.42,0.7 -0.58,1.07l-0.3 0.72c-0.03,0.1 -0.03,0.09 -0.06,0.16 -0.36,0.97 -0.39,2.23 -0.21,3.32l0.27 1.34c0.08,0.36 0.36,0.98 0.38,1.25 -0.03,0.02 -0.03,0.03 -0.07,0.06 -0.12,0.09 -0.77,0.32 -0.93,0.37l-1.75 0.68c-0.08,0.03 -0.16,0.07 -0.25,0.1l-2.56 0.92c-0.17,0.06 -0.28,0.11 -0.47,0.18l-1.08 0.34c-0.2,0.06 -0.34,0.1 -0.52,0.17 -0.18,0.06 -0.36,0.13 -0.58,0.09 -0.07,-0.24 -0.02,-3.51 -0.02,-4.04 0,-0.97 -0.05,-3.21 0,-4.02 0.54,-0.29 1.07,-0.65 1.6,-0.97l8.52 -5.18c0.07,-1.29 -0.01,-2.86 0,-4.21 0,-0.16 -0.02,-0.15 0.06,-0.24 0.16,-0.07 5.78,-0.02 6.5,-0.03 -0.01,-0.19 -0.12,-0.3 -0.2,-0.44 -0.39,-0.65 -0.76,-1.33 -1.17,-1.96 -0.17,-0.27 -0.3,-0.5 -0.46,-0.77l-0.94 -1.55c-0.33,-0.56 -0.61,-1.06 -0.93,-1.57l-1.65 -2.75c-0.05,-0.08 -0.06,-0.12 -0.11,-0.21 -0.01,-0.02 -0.05,-0.07 -0.06,-0.09 -0.02,-0.04 -0.03,-0.07 -0.05,-0.09l-0.94 -1.56c-0.29,-0.5 -0.62,-0.98 -0.92,-1.55l-3.99 -0.01c0.02,-0.22 1.03,-1.93 1.27,-2.34 0.32,-0.55 0.35,-0.44 0.21,-0.76 0.09,-0.21 0.34,-0.43 0.47,-0.67 0.42,-0.85 0.21,-1.83 -0.43,-2.47 -0.32,-0.32 -0.19,-0.32 -0.79,-0.32 -1.04,0 -2.32,0.06 -3.32,-0.01l0.01 -1.19 4.23 -0c0.16,-0.22 0.1,-0.32 -0.05,-0.49l-1.61 -1.84c-0.08,-0.1 -0.11,-0.1 -0.19,-0.2 -0.56,-0.7 -1.25,-1.36 -1.8,-2.04 -0.12,-0.15 -0.23,-0.25 -0.35,-0.39l-0.73 -0.82c-0.14,-0.18 -0.11,-1.19 -0.06,-1.45 0.02,-0.03 0.97,-0.43 1.52,-1.28 0.43,-0.66 0.44,-1.52 0.01,-2.23 -0.39,-0.65 -0.81,-0.95 -1.5,-1.31 -0.26,-0.14 -0.47,-0.19 -0.77,-0.29 -0.15,-0.05 -0.37,-0.13 -0.54,-0.15l-0.92 -0.11 0.03 -0.26c0.1,-0.04 0.17,-0.03 0.3,-0.07 0.05,-0.02 0.04,-0.01 0.08,-0.03l0.6 -0.31c1.3,-0.8 2.21,-3.13 2.27,-4.54 0.01,-0.22 0.07,-0.41 0.08,-0.63 0.01,-0.22 0.01,-0.45 0.01,-0.67 -0,-1.59 -0.04,-1.09 -0.3,-1.33l-0.47 -0.87c-0.43,-0.8 -0.95,-1.55 -1.48,-2.28 -1.09,-1.52 -1,-0.68 -1,-2.21 0,-0.8 0.06,-7.92 -0.04,-8.53l-0.54 0.01c-0.08,1.39 -0.03,2.86 -0.03,4.26 0,1.44 -0,2.88 0,4.33 0,0.73 -0,0.49 -0.77,1.39 -0.32,0.38 -0.63,0.8 -0.93,1.22 -0.43,0.62 -0.87,1.31 -1.24,1.99 -0.11,0.19 -0.3,0.52 -0.39,0.74zm3.62 30.8c0.14,-0.05 0.21,-0.4 0.26,-0.53l0.47 -1.22c0.05,-0.14 0.2,-0.5 0.21,-0.63l-0.94 -0.01 -0.01 2.39zm6.69 5.42c0.02,0.27 0.97,2.11 1.21,2.64 0.16,0.37 0.61,1.38 0.76,1.6l2.14 -0.02c0.01,-0.14 -0.54,-1.24 -0.66,-1.47l-0.72 -1.5c-0.11,-0.2 -0.2,-0.4 -0.29,-0.58 -0.83,-1.6 -0.17,-1.21 -1.53,-0.96 -0.14,0.02 -0.34,0.09 -0.47,0.13 -0.14,0.04 -0.32,0.08 -0.44,0.14zm-2.77 -5.15l0.37 0.01c0.22,0.55 0.84,1.78 1.12,2.4l1.11 2.43c0.16,0.01 1.75,-0.44 1.87,-0.51 -0.02,-0.16 -0.11,-0.3 -0.17,-0.42l-0.61 -1.25c-0.25,-0.53 -0.54,-1.11 -0.8,-1.67l-0.6 -1.22c-0.24,-0.49 -0.77,-1.76 -1.02,-2.08 -0.04,0.04 0,-0.01 -0.05,0.06l-0.95 1.65c-0.07,0.12 -0.3,0.44 -0.29,0.6zm10.62 -20.13c-0.03,0.33 0.99,1.29 1.22,1.48 1.52,1.28 3.05,1.77 5.06,1.12 0.21,-0.07 0.79,-0.23 1,-0.38 -0.01,-0.24 -0.46,-0.88 -0.59,-1.14 -0.31,-0.59 -0.33,-0.56 -0.82,-0.9 -0.17,-0.11 -0.36,-0.23 -0.52,-0.32 -0.86,-0.44 -1.13,-0.55 -2.22,-0.55 -1.2,0 -2.21,0.33 -3.12,0.69zm-14.54 -0.81c0,0.5 -0.03,2.8 0.01,3.33 0.6,0.05 1.2,-0.08 1.67,-0.23 0.28,-0.09 0.5,-0.14 0.73,-0.26 0.23,-0.12 0.42,-0.22 0.62,-0.37 0.73,-0.53 1.43,-1.5 0.89,-2.66 -0.39,-0.84 -1.33,-1.39 -2.26,-1.67 -0.32,-0.1 -1.2,-0.26 -1.53,-0.22 -0.14,0.01 -0.12,-0.01 -0.14,0.12 -0.05,0.28 0,1.59 0,1.97zm22.6 39.46c0.21,0.29 1.53,0.66 2.05,0.71 0.64,0.06 0.51,0.1 1.3,0.07 0.37,-0.01 0.82,-0.15 1.14,-0.28 0.81,-0.32 1.79,-1.12 2.38,-1.73 0.12,-0.12 0.6,-0.63 0.65,-0.75 -0.25,-0.24 -1.6,-0.64 -2.06,-0.7 -0.23,-0.03 -0.26,-0.08 -0.57,-0.08 -0.66,-0.01 -1.25,-0.11 -1.93,0.15 -0.51,0.2 -1.46,0.61 -1.77,1.02l-1.2 1.59zm-6.48 5.27c0.05,0.27 1.12,1.12 1.43,1.34 0.92,0.64 1.98,1.08 3.14,0.95 0.83,-0.1 1.43,-0.24 2.18,-0.59 0.26,-0.12 0.72,-0.3 0.93,-0.48 -0.24,-0.34 -1.08,-1.07 -1.47,-1.32 -1.48,-0.94 -2.54,-1.43 -4.42,-0.96 -0.34,0.09 -0.56,0.27 -0.92,0.5 -0.17,0.11 -0.79,0.45 -0.87,0.56zm-5.79 -56.59c0,0.4 0.65,1.66 0.87,2.04 1.09,1.88 2.04,2.61 4.12,3.13 0.12,0.03 0.53,0.13 0.62,0.12 0.16,-0.01 0.31,-0.26 0.39,-0.35 0.4,-0.44 0.39,-0.3 0.15,-0.9 -0.13,-0.33 -0.32,-0.66 -0.48,-0.96 -0.26,-0.49 -0.86,-1.3 -1.25,-1.66 -1,-0.93 -2.65,-1.45 -4.41,-1.41zm6.81 18.12c0.08,0.47 1.44,1.67 2.01,2.02 0.6,0.37 1.19,0.71 1.93,0.79 0.32,0.03 1.05,0.04 1.36,-0.01l1.07 -0.26c0.33,-0.11 0.75,-0.23 0.99,-0.37 0.02,-0.14 -0.43,-1.25 -0.64,-1.41 -0.13,-0.1 -0.29,-0.23 -0.4,-0.31 -0.84,-0.67 -1.85,-1.15 -2.93,-1.21l-1.02 0.04c-0.18,0.01 -0.14,0.03 -0.26,0.07 -0.54,0.14 -0.39,0.06 -1.09,0.27 -0.29,0.09 -0.85,0.22 -1.03,0.38zm11.77 17.69c0.95,-0.01 3.03,-1.58 3.54,-2.43 0.62,-1.04 0.97,-2.13 1.15,-3.35 0.05,-0.35 0.14,-1.02 0.11,-1.38 -0.36,-0.05 -1.97,0.95 -2.38,1.31 -1.13,0.97 -1.65,1.58 -2.11,3.14 -0.31,1.05 -0.08,0.56 -0.2,1.29l-0.11 1.42zm-8.77 -11.9c0,0.25 0.64,1.33 0.81,1.58 0.6,0.85 1.57,1.9 2.59,2.27 0.81,0.29 2.31,0.51 3.28,0.27l0.14 -0.06c0,-0.27 -0.16,-0.89 -0.23,-1.14 -0.18,-0.59 -1.53,-1.86 -1.98,-2.18 -0.47,-0.34 -1.3,-0.67 -2.02,-0.74 -0.15,-0.01 -0.14,-0.04 -0.23,-0.06 -0.22,-0.06 -2.11,-0.07 -2.35,0.06zm-8.83 -15.8c0.11,0.56 1.33,1.53 1.77,1.89 0.3,0.24 0.82,0.48 1.17,0.66 0.94,0.47 2.25,0.34 3.23,0.06 0.43,-0.13 1.09,-0.32 1.43,-0.54 -0.01,-0.16 -0.72,-1.13 -0.84,-1.23 -0.6,-0.53 -1.39,-1.01 -2.17,-1.34 -0.7,-0.3 -1.72,-0.24 -2.48,-0.15l-0.47 0.09c-0.01,0 -0.02,0.01 -0.02,0.01l-0.04 0.02c-0.01,0 -0.02,0.01 -0.02,0.01l-1.57 0.54zm-1.73 51.62c0.26,0.83 1.88,2.34 2.8,2.81 0.68,0.35 1.4,0.47 2.36,0.45 0.56,-0.02 1.95,-0.27 2.32,-0.49 -0.05,-0.42 -1.54,-1.88 -2.02,-2.26 -0.99,-0.77 -1.71,-1.12 -3.25,-1.11 -0.75,0 -1.09,0.08 -1.71,0.37 -0.16,0.07 -0.37,0.12 -0.5,0.23zm15.53 -15.75c0.37,-0.72 0.07,-1.8 -0.08,-2.55 -0.03,-0.15 -0.02,-0.17 -0.06,-0.28 -0.22,-0.58 -0.24,-1.09 -0.75,-1.92 -0.59,-0.94 -1.41,-1.65 -2.29,-2.25 -0.09,-0.06 -0.83,-0.55 -0.95,-0.57 -0.15,-0.03 -0.12,0.04 -0.13,0.2 -0.03,0.44 -0.08,0.56 -0.02,1.07 0.03,0.24 0.03,0.45 0.05,0.69 0.02,0.19 0.08,0.46 0.12,0.67 0.11,0.66 0.49,1.74 0.79,2.23 0.36,0.61 0.9,1.17 1.43,1.59 0.82,0.65 0.83,0.59 1.6,1.04l0.07 0.04c0.14,0.07 0.12,0.05 0.23,0.04zm2.16 -8.02c0.14,-0.53 0.1,-0.77 -0.11,-1.18 -0.16,-0.32 -0.29,-0.66 -0.49,-0.98 -0.87,-1.4 -1.41,-2.23 -3.1,-2.87 -0.33,-0.13 -0.8,-0.28 -1.15,-0.34 -0.16,-0.03 -0.46,-0.08 -0.6,-0.13l-0.63 -0.11c-0.18,0.05 0.15,0.98 0.2,1.1 0.36,0.95 0.45,1.1 0.98,1.97 0.06,0.1 0.1,0.12 0.15,0.19 0.19,0.25 0.16,0.29 0.5,0.66 0.49,0.52 1.02,0.86 1.8,1.18 0.49,0.2 1.83,0.56 2.45,0.5zm-19.26 18.31l0.01 0.6c0.02,0.35 0.04,0.26 0.07,0.47 0.03,0.17 0.01,0.35 0.06,0.52l0.2 0.92c0.11,0.46 0.2,0.83 0.41,1.28 0.36,0.04 0.66,-0.55 0.92,-0.93 0.23,-0.34 0.47,-0.77 0.66,-1.2 0.95,-2.06 0.84,-2.96 0.55,-5.04 -0.02,-0.16 -0.04,-0.17 -0.07,-0.29 -0.04,-0.2 -0.33,-1.4 -0.43,-1.43 -0.15,-0.05 -0.68,0.63 -0.76,0.73 -0.48,0.58 -0.78,1.22 -1.1,1.9 -0.35,0.74 -0.53,1.43 -0.53,2.47zm17.9 -37.45l0 0.04c-0,0.82 0.09,2.11 0.29,2.86 0.24,-0.02 0.97,-0.74 1.14,-0.95 1.55,-1.86 1.93,-3.18 1.81,-5.61 -0.02,-0.44 -0.23,-1.93 -0.45,-2.25 -0.42,0.17 -1.61,1.83 -1.92,2.39 -0.24,0.44 -0.53,0.99 -0.67,1.51 -0.16,0.6 -0.2,1.33 -0.2,2zm-10.82 38.29c0.29,-0.1 0.32,-0.18 0.45,-0.43 0.35,-0.66 0.43,-0.84 0.68,-1.55 0.13,-0.37 0.33,-0.96 0.41,-1.33 0.15,-0.72 0.14,-1.37 0.1,-2.15 -0.05,-0.02 0.08,0.05 -0.04,0 -0.03,-0.19 -0.03,-0.4 -0.06,-0.56 -0.15,-0.7 -0.8,-2.79 -1.11,-3.07 -0.32,0.15 -0.98,1.47 -1.14,1.88 -0.25,0.66 -0.58,1.73 -0.6,2.45 -0.04,1.52 0.26,2.51 0.79,3.76 0.09,0.22 0.37,0.87 0.52,0.99zm11.52 -10.36c1.39,0.48 3.54,0.2 4.71,-0.71 0.6,-0.47 0.93,-0.9 1.43,-1.53 0.21,-0.26 1.06,-1.63 1.04,-1.9 -0.86,-0.27 -2.85,0.03 -3.71,0.35 -1.23,0.47 -2.23,1.72 -2.96,2.81 -0.13,0.2 -0.49,0.73 -0.51,0.96zm-3.25 -31.07c0.35,-0.1 1.18,-1.25 1.41,-1.63 0.16,-0.26 0.64,-1.23 0.75,-1.57 0.07,-0.22 0.12,-0.37 0.19,-0.58 0.18,-0.51 0.16,-1.57 0.13,-2.19 -0.01,-0.26 -0.06,-0.43 -0.08,-0.7 -0.01,-0.18 -0.1,-0.41 -0.14,-0.6 -0.03,-0.13 -0.05,-0.2 -0.08,-0.3 -0.03,-0.11 -0.03,-0.2 -0.07,-0.32 -0.06,-0.19 -0.14,-0.4 -0.18,-0.58 -0.07,-0.26 -0.08,-0.48 -0.24,-0.54 -0.11,0.07 -0.57,0.68 -0.66,0.81 -0.49,0.69 -1.32,2.17 -1.47,2.99 -0.2,1.06 -0.17,1.7 -0.1,2.81 0.02,0.37 0.4,2.24 0.55,2.42zm5.21 13.09c0,0.23 -0.05,0.81 0.06,0.89 0.01,0 0.02,0 0.03,0.01 0.05,0.11 0.81,-0.39 0.83,-0.4 0.27,-0.17 0.49,-0.36 0.73,-0.57 1.67,-1.54 2.3,-3 2.31,-5.59 0,-0.51 -0.02,-1.08 -0.1,-1.53 -0.37,0.03 -1.35,0.94 -1.59,1.19 -0.46,0.47 -0.88,0.94 -1.24,1.5 -0.74,1.16 -1.02,2.8 -1.02,4.5zm-10.59 18.36c0,0.22 -0.01,0.82 0.04,0.99 0.11,0.33 0.1,0.43 0.2,0.75 0.07,0.26 0.15,0.43 0.27,0.67 0.43,0.86 0.83,1.65 1.48,2.36 0.07,0.08 0.15,0.18 0.23,0.27 0.1,0.11 0.15,0.19 0.3,0.22 0.43,-0.87 0.63,-2.85 0.63,-3.88 -0,-0.73 -0.19,-1.57 -0.51,-2.25 -0.41,-0.86 -0.4,-0.92 -0.99,-1.83l-0.58 -0.79c-0.14,-0.18 -0.13,-0.19 -0.28,-0.25 -0.16,0.36 -0.5,1.23 -0.59,1.65 -0.03,0.15 -0.07,0.31 -0.08,0.48 -0.02,0.26 -0.03,0.28 -0.08,0.49 -0.04,0.15 -0.04,0.92 -0.04,1.13zm-26.81 0.91l0.06 0.06c0.53,0.46 2.48,1.84 3.15,2.33l3.23 2.36c0.37,0.26 0.74,0.54 1.08,0.79l0.96 0.69c0.12,0.07 0.04,0.05 0.2,0.08l-0 -3.01 -1.99 -1.3c-0.78,-0.49 -1.75,-1.16 -2.5,-1.62l-2.97 -1.96c-0.17,-0.11 -0.4,-0.29 -0.55,-0.31l-0.11 0.22c-0.03,0.11 -0.04,0.16 -0.08,0.24 -0.11,0.29 -0.46,1.15 -0.49,1.41zm-1.01 9.37c-1.96,0.28 -3,3.22 -1.31,5.13 0.17,0.19 0.54,0.45 0.81,0.56 1.86,0.77 3.52,-1.09 3.32,-3.11 -0.15,-1.49 -1.25,-2.81 -2.82,-2.59zm9.96 -3.04c0.21,-0.02 1.03,-0.61 1.26,-0.75 0.41,-0.25 0.83,-0.51 1.25,-0.79l6.17 -3.92c0.19,-0.13 0.41,-0.26 0.63,-0.39 0.13,-0.08 0.56,-0.33 0.61,-0.41 0.05,-0.09 0.08,-3.4 0.02,-3.64 -0.27,-0.01 -0.92,-0.07 -1.11,0.09 -0.57,0.48 -1.5,1.12 -2.11,1.62 -1.11,0.9 -3.01,2.32 -4.2,3.22l-2.11 1.61c-0.44,0.34 -0.42,0.19 -0.42,0.86 0,0.81 -0.03,1.7 0.01,2.5zm-1.18 -50.57c-0.01,0.24 0.06,0.19 -0.25,0.51 -0.37,0.38 -0.76,0.78 -0.98,1.24 -0.46,0.92 -0.48,1.76 -0.48,2.87 0,0.62 0.87,1.73 1.45,2.14 0.38,0.27 0.83,0.42 1.4,0.39 0.49,-0.02 0.91,-0.3 1.25,-0.55 0.72,-0.54 1.21,-1.61 1.49,-2.52 0.34,-1.08 0.41,-1.61 0.41,-2.83 -0,-1.03 0.04,-0.86 -0.43,-1.74 -0.67,-1.23 -1.52,-2.45 -2.42,-3.52 -0.1,-0.12 -0.14,-0.24 -0.29,-0.25 0.03,0.33 0.6,1.72 0.26,2.62 -0.09,0.24 -0.49,0.69 -0.66,0.88 -0.16,0.17 -0.59,0.69 -0.75,0.78zm17.66 40.39c-0.01,-0.14 -0.7,-1.26 -0.86,-1.51 -0.15,-0.23 -0.29,-0.53 -0.44,-0.76l-2.24 -3.74c-0.3,-0.49 -0.6,-1 -0.89,-1.5l-1.79 -2.98c-0.19,-0.31 -0.74,-1.29 -0.91,-1.5l-4.03 -0.01c-0.01,0.17 0.35,0.86 0.42,1 0.37,0.69 0.8,1.73 1.18,2.44 0.29,0.55 0.46,1 0.71,1.47l3.06 6.37c0.08,0.16 0.17,0.33 0.24,0.5 0.14,0.35 0.26,0.24 1.2,0.24 0.71,0 3.93,0.03 4.35,-0.01zm-21.34 2.4c0.17,0.11 1.34,-0.15 1.53,-0.19 0.83,-0.19 1.74,-0.7 2.17,-1.42 0.2,-0.33 0.45,-0.82 0.55,-1.27 0.27,-1.22 0.3,-0.96 0.4,-2.29 0.02,-0.28 0.46,-0.92 0.6,-1.21l0.99 -1.75c0.41,-0.7 0.87,-1.61 1.29,-2.29l2.6 -4.64c0.17,-0.31 1.26,-2.17 1.28,-2.33l-4.32 -0.01c-0.08,0.04 -0.04,0.02 -0.1,0.09 -0.07,0.09 -0.12,0.3 -0.17,0.42 -0.23,0.55 -0.45,1.26 -0.65,1.71 -0.15,0.33 -0.31,0.76 -0.44,1.13l-0.87 2.3c-0.15,0.37 -0.3,0.76 -0.44,1.14l-1.76 4.56c-0.09,0.1 -0.45,0.16 -0.58,0.2 -0.79,0.27 -1.8,1.01 -2.2,1.76 -0.32,0.6 -0.33,2.08 -0.18,2.8 0.05,0.22 0.08,0.45 0.12,0.66 0.02,0.11 0.04,0.22 0.07,0.32 0.03,0.11 0.05,0.23 0.11,0.31zm4.85 -4.18l0.01 8.47c0.16,-0.01 0.32,-0.21 0.54,-0.37 0.5,-0.37 1.47,-1.2 2.02,-1.64 0.17,-0.14 0.3,-0.24 0.51,-0.41l1.32 -0.97c0.41,-0.29 3.94,-2.84 3.96,-2.94 -0.01,-0.21 -0.41,-0.99 -0.51,-1.19 -0.18,-0.37 -0.34,-0.79 -0.54,-1.18l-1.63 -3.55c-0.31,-0.58 -0.54,-1.17 -0.81,-1.76l-0.82 -1.76 -0.39 -0.01c-0.09,0.13 -0.15,0.26 -0.24,0.41l-0.74 1.34c-0.17,0.31 -0.33,0.57 -0.5,0.87 -0.55,0.97 -1.15,2.13 -1.7,3.09 -0.4,0.69 -0.47,0.57 -0.47,1.6zm-3.74 -38.68c-0.09,0.03 -0.13,-0 -0.16,0.04l0.16 -0.04zm24.9 5.49c0.16,-0.27 0.66,-1.27 0.78,-1.62 0.07,-0.23 0.12,-0.38 0.2,-0.6 0.19,-0.52 0.16,-1.63 0.13,-2.26 -0.01,-0.27 -0.06,-0.45 -0.08,-0.73 -0.01,-0.18 -0.1,-0.42 -0.15,-0.62 -0.03,-0.14 -0.05,-0.2 -0.08,-0.31 -0.03,-0.12 -0.04,-0.21 -0.08,-0.33 -0.06,-0.2 -0.14,-0.42 -0.19,-0.6 -0.07,-0.27 -0.09,-0.5 -0.25,-0.56 -0.11,0.07 -0.59,0.71 -0.68,0.84 -0.51,0.72 -1.36,2.25 -1.52,3.09 -0.21,1.1 -0.18,1.76 -0.11,2.91 0.38,2.39 0.61,3.18 2.03,0.81zm-1.3 1.37c0.34,-0.09 1.04,-1.16 1.26,-1.53 0.15,-0.26 0.62,-1.18 0.72,-1.52 0.07,-0.21 0.11,-0.36 0.19,-0.56 0.17,-0.49 0.15,-1.52 0.13,-2.11 -0.01,-0.25 -0.06,-0.42 -0.08,-0.68 -0.01,-0.17 -0.1,-0.4 -0.14,-0.58 -0.03,-0.13 -0.05,-0.19 -0.07,-0.29 -0.03,-0.11 -0.03,-0.2 -0.07,-0.31 -0.06,-0.19 -0.13,-0.39 -0.18,-0.56 -0.06,-0.25 -0.08,-0.47 -0.23,-0.52 -0.1,0.07 -0.55,0.66 -0.64,0.79 -0.47,0.67 -1.18,2.1 -1.33,2.89 -0.2,1.03 -0.26,1.65 -0.2,2.72 0.02,0.36 0.49,2.11 0.63,2.29z"/>
    <path id="_1" class="fil1 str0" d="M55.27 36.56l-0.01 0.01c-0,0 -0,0 -0.01,0 -0.01,0.03 -0.08,0.03 -0.15,0.03 -0.01,0.02 -0.02,0.05 -0.04,0.1 -0.08,0.33 -0.04,0.72 -0.04,1.06 -0,0.89 0.12,1.77 0.33,2.63 0.26,1.05 0.77,2.13 1.55,2.88 0.17,0.16 0.23,0.2 0.41,0.33 0.17,0.12 0.27,0.16 0.46,0.28 0.38,0.23 0.96,0.2 1.21,0.26 0,0.09 -0,0.14 -0.03,0.19 -1.26,0.16 -1.11,-0.09 -2.46,0.46 -0.38,0.15 -0.82,0.44 -1.14,0.73 -0.48,0.44 -0.81,1.06 -0.79,1.76 0,0.17 0.04,0.53 0.09,0.67 0.05,0.13 0.15,0.37 0.23,0.47 0.76,1.03 0.86,0.81 1.55,1.33 0.01,0.31 0.07,1.23 -0.09,1.43 -0.27,0.35 -0.62,0.67 -0.9,1l-0.52 0.6c-0.69,0.83 -1.41,1.59 -2.12,2.42 -0.12,0.14 -0.28,0.27 -0.38,0.39 -0.13,0.16 -0.19,0.24 -0.33,0.41 -0.35,0.41 -0.64,0.5 -0.5,0.94l4.24 0c0.03,0.13 0.1,1.13 -0.01,1.23 -0.11,0.09 -2.82,0.04 -3.21,0.04 -0.33,0 -0.5,-0.04 -0.7,0.12 -0.32,0.26 -0.53,0.56 -0.69,0.93 -0.27,0.59 -0.03,1.55 0.32,1.99 0.07,0.09 0.32,0.38 0.4,0.42 0.06,0.03 0.29,0.1 0.33,0.1 0.36,0.04 1.58,-0 2.01,-0.01 0.27,-0 0.54,-0 0.81,-0 0.12,0 0.68,-0.05 0.76,0.04 0.07,0.09 0.09,1.2 0.09,1.39 0,0.19 0.05,1.37 -0.03,1.46 -0.09,0.09 -2.97,0.04 -3.32,0.04l-2.95 0c-0.49,-0 -0.37,0.06 -0.67,0.59 -0.15,0.26 -0.37,0.51 -0.48,0.78l-2.17 3.67c-0.12,0.26 -0.34,0.54 -0.47,0.8l-2.8 4.68c-0.21,0.36 -1.18,1.87 -1.17,2.08 1.64,0.06 3.31,0.01 4.95,0.01 0.45,0 1,-0.04 1.44,-0 0.06,0 0.05,0.01 0.09,0.02 0.01,0 0.02,0.02 0.03,0.01 0.12,-0.2 0.05,4.08 0.06,4.41 0.6,0.4 1.34,0.82 1.98,1.22l7.89 4.78c0.25,0.15 0.37,0.3 0.69,0.36l-0 7.76c-0.15,0.01 -0.17,-0.02 -0.3,-0.07 -0.02,-0.01 -0.1,-0.03 -0.11,-0.04 -0.16,-0.05 -0.28,-0.06 -0.44,-0.12 -0.28,-0.12 -0.56,-0.17 -0.85,-0.28l-3.69 -1.34c-0.13,-0.05 -0.28,-0.11 -0.4,-0.16 -0.3,-0.11 -0.51,-0.22 -0.81,-0.28 -0.11,-0.44 -0.04,-1.03 -0.17,-1.51 -0.23,-0.84 -0.78,-1.65 -1.55,-2.08 -0.68,-0.37 -1.35,-0.44 -2.12,-0.2 -0.78,0.25 -1.05,0.71 -1.48,1.14 -0.04,0.1 -0.08,0.15 -0.15,0.25 -0.36,0.59 -0.6,1.68 -0.5,2.38 0.06,0.47 0.17,0.84 0.36,1.25 0.12,0.25 0.15,0.34 0.29,0.53 0.93,1.33 2.47,1.79 3.9,0.8 0.25,-0.17 0.66,-0.59 0.79,-0.85 0.21,-0.01 0.89,0.28 1.09,0.36l3.08 1.14c0.17,0.09 0.06,-0.02 0.12,0.12 -0.01,0.01 -0.02,0.01 -0.02,0.02l-0.23 0.13c-0.8,0.44 -0.86,0.42 -1.8,1.01 -1.32,0.84 -2.35,1.88 -3.24,3.16 -0.24,0.35 -1.07,1.72 -1.07,2.19 0.17,0.11 1.28,0.59 1.45,0.57 0.18,-0.34 0.24,-0.56 0.54,-1.1 0.88,-1.57 2.31,-2.87 3.88,-3.71 0.67,-0.36 1.01,-0.56 1.74,-0.8 0.28,-0.09 1.01,-0.33 1.31,-0.35 0.08,1.24 -0.12,9.19 0.08,9.53 0.1,0.04 0.26,0.05 0.37,0.02 0.2,-0.27 0.16,-4.22 0.16,-4.81 0,-0.96 0.06,-4.24 -0.05,-4.94 0.31,-0 0.49,0.13 0.75,0.17 0.3,0.05 0.63,0.17 0.92,0.24 1.95,0.47 4.12,1.98 5.32,3.49l0.73 1.06c0.31,0.48 0.57,1.15 0.59,1.19 0.03,0 1.34,-0.5 1.39,-0.58 0.1,-0.19 -0.6,-1.42 -0.75,-1.67 -0.56,-0.95 -1.36,-1.93 -2.21,-2.64 -0.44,-0.37 -0.9,-0.74 -1.39,-1.04 -0.31,-0.2 -0.68,-0.4 -1.02,-0.6l-1.09 -0.53c0.08,-0.2 0.53,-0.29 0.72,-0.35 0.24,-0.07 0.46,-0.18 0.71,-0.26 0.89,-0.29 3.21,-1.2 3.96,-1.53 0.13,-0.06 0.23,-0.11 0.41,-0.1 0.39,0.8 1.04,1.59 1.72,2.14 0.08,0.07 0.14,0.1 0.22,0.17 0.21,0.18 0.42,0.35 0.67,0.49 0.35,0.2 0.66,0.33 1.04,0.47l0.62 0.14c0.52,0.04 0.93,0.01 1.44,0.01 0.31,-0 0.43,-0.07 0.71,-0.08 0.25,-0.01 0.12,-0.02 0.3,-0.07 0.46,-0.14 0.99,-0.2 1.41,-0.47 -0.02,-0.18 -0.35,-0.6 -0.45,-0.73 -0.48,-0.67 -1.1,-1.32 -1.72,-1.83 -0.64,-0.51 -1.15,-0.83 -1.91,-1.08 -0.51,-0.17 -1.37,-0.13 -1.55,-0.21 0.08,-0.16 -0.02,0 0.06,-0.08 0.01,-0.01 0.06,-0.05 0.07,-0.05 0.27,-0.16 0.61,-0.27 0.89,-0.41 0.29,-0.15 0.67,-0.31 0.99,-0.48l1.47 -0.78c0.62,-0.31 0.42,-0.35 0.88,0.17 0.65,0.75 1.81,1.5 2.74,1.82 0.19,0.06 0.74,0.2 0.93,0.21 0.67,0.02 1.32,-0.03 1.95,-0.22 0.08,-0.02 0.06,-0.01 0.15,-0.03 0.32,-0.06 2.24,-0.84 2.24,-1.1 -0.07,-0.2 -0.81,-0.89 -1.05,-1.08 -0.59,-0.47 -1.26,-0.95 -1.95,-1.28 -0.29,-0.14 -0.41,-0.2 -0.76,-0.3 -0.6,-0.17 -1.33,-0.16 -1.96,-0.12 0.03,-0.13 -0,-0.07 0.1,-0.16 0.19,-0.19 0.45,-0.32 0.64,-0.48l1.72 -1.48c0.18,-0.16 0.3,-0.3 0.46,-0.46 1.09,-1.1 0.75,-1.03 1.45,-0.67 0.25,0.13 0.55,0.21 0.84,0.32l0.95 0.21c0.47,0.04 0.97,0.12 1.42,0.03 0.13,-0.03 0.24,-0.01 0.36,-0.03 0.46,-0.1 0.94,-0.31 1.35,-0.55 0.19,-0.11 0.28,-0.16 0.47,-0.3 0.09,-0.07 0.15,-0.1 0.23,-0.16 0.42,-0.28 2.03,-1.72 2.02,-2.18 -0.41,-0.24 -0.89,-0.41 -1.33,-0.58 -0.34,-0.13 -0.7,-0.15 -1.04,-0.27l-0.11 -0.03c-0.84,-0.09 -1.81,-0.2 -2.61,0.13l-0.66 0.29c-0.11,0.05 -0.22,0.1 -0.33,0.14 0.01,-0.22 0.39,-0.73 0.52,-0.97 0.19,-0.34 0.33,-0.59 0.51,-0.93l0.94 -1.94c0.07,0 0.25,0.06 0.34,0.08 0.31,0.09 0.69,0.15 1.03,0.16 0.27,0.01 0.54,0 0.81,-0 0.45,-0.01 0.46,-0.07 0.74,-0.09 0.27,-0.02 0.71,-0.17 0.98,-0.25 0.13,-0.04 0.14,-0.06 0.26,-0.11 1.07,-0.47 1.9,-1.37 2.51,-2.31 0.21,-0.32 1.08,-1.68 1.06,-2.13 -0.26,-0.09 -0.8,-0.13 -1.12,-0.17 -0.53,-0.07 -0.68,0.05 -1.12,0.06 -0.31,0.01 -0.32,0.04 -0.57,0.07 -0.45,0.05 -1.1,0.2 -1.5,0.39 -1.63,0.78 -2.3,2.2 -2.68,2.41 0.01,-0.24 0.42,-1.4 0.49,-1.68 0.18,-0.66 0.36,-1.28 0.51,-1.97 0.03,-0.14 0.03,-0.07 0.07,-0.22 0.06,-0.3 0.19,-1.07 0.28,-1.32l0.33 -1.81c0.4,-0.04 0.91,-0.27 1.24,-0.42 0.69,-0.32 1.35,-0.83 1.89,-1.37 0.34,-0.33 0.46,-0.47 0.73,-0.89 0.47,-0.72 0.96,-2.08 1.09,-3.02l0.17 -1.06c0.04,-0.38 0.03,-0.8 -0,-1.18 -0.15,0 -0.67,0.21 -0.84,0.29 -0.39,0.18 -0.76,0.36 -1.12,0.6 -0.33,0.22 -0.69,0.45 -0.97,0.71 -0.71,0.65 -1.1,0.99 -1.54,1.87 -0.08,0.16 -0.25,0.7 -0.4,0.75 -0.04,-0.08 -0.04,-0.18 -0.04,-0.3 0,-0.1 0,-0.21 0,-0.32l-0.24 -2.47c-0.08,-0.39 -0.21,-0.9 -0.19,-1.3 0.77,-0.27 1.43,-0.82 1.99,-1.35 0.27,-0.25 0.54,-0.59 0.78,-0.87 0.26,-0.32 0.46,-0.61 0.65,-1 0.22,-0.44 0.31,-0.71 0.44,-1.26 0.06,-0.23 0.2,-0.78 0.22,-1.03 0.01,-0.13 -0,-0.25 0.01,-0.39 0.06,-0.53 0.09,-1 0.07,-1.59 -0.01,-0.21 -0.1,-1.25 -0.18,-1.47 -0.17,-0.01 -0.36,0.15 -0.5,0.24 -0.15,0.09 -0.27,0.17 -0.42,0.28 -0.98,0.74 -2.2,1.96 -2.67,3.1 -0.41,1.01 -0.29,0.93 -0.5,1.67 -0.06,0.21 -0.05,0.39 -0.11,0.6 -0.07,0.26 -0.05,1.12 -0.14,1.29 -0.11,-0.08 -0.12,-0.25 -0.16,-0.38l-0.32 -1.24c-0.07,-0.25 -0.15,-0.51 -0.24,-0.78 -0.05,-0.15 -0.08,-0.24 -0.13,-0.4l-0.11 -0.37c-0.32,-0.74 -0.51,-1.52 -0.83,-2.26 -0.06,-0.14 -0.09,-0.25 -0.14,-0.39 -0.2,-0.52 -0.04,-0.36 0.39,-0.72 0.47,-0.39 0.86,-0.79 1.22,-1.3 0.23,-0.32 0.46,-0.66 0.66,-1.03 0.28,-0.53 0.3,-0.62 0.53,-1.17 0.23,-0.56 0.33,-1.56 0.32,-2.2 -0,-0.26 -0.04,-0.52 -0.05,-0.78 -0.02,-0.52 -0.1,-1.05 -0.2,-1.51 -0.08,-0.38 -0.16,-0.93 -0.36,-1.28 -0.15,-0.02 -0.17,0.04 -0.24,0.11 -0.39,0.35 -0.74,0.72 -1.08,1.14 -0.51,0.64 -0.89,1.29 -1.28,2.02 -0.17,0.31 -0.32,0.7 -0.4,1.06 -0.16,0.72 -0.12,0.67 -0.19,1.31 -0.05,0.43 -0.07,0.97 -0.01,1.43 0.03,0.24 0.01,0.49 0.04,0.72 0.03,0.23 0.11,0.33 0.07,0.65 -0.12,-0.06 -0.06,-0.01 -0.13,-0.15l-0.21 -0.45c-0.1,-0.21 -0.17,-0.42 -0.27,-0.61l-1.2 -2.38c-0.89,-1.72 -0.76,-0.8 0.28,-2.03 0.26,-0.31 0.52,-0.67 0.72,-1.01 0.79,-1.35 1.19,-2.37 1.18,-3.97 -0,-0.46 0.03,-0.37 -0.06,-0.79 -0.03,-0.13 -0.02,-0.28 -0.03,-0.41 -0.07,-0.58 -0.51,-2.49 -0.87,-2.97 -0.26,0.1 -1.17,1.42 -1.35,1.72l-0.29 0.49c-0.73,1.36 -1.15,2.63 -1.03,4.32 0.02,0.34 0.09,1.01 0.19,1.36 0.05,0.18 0.09,0.44 0.13,0.63 0.05,0.23 0.11,0.4 0.11,0.65 -0.12,-0.05 -0.04,0.01 -0.12,-0.1l-1.18 -1.95c-0.23,-0.35 -0.4,-0.66 -0.65,-1.03 -0.67,-1 -1.36,-1.97 -2.03,-2.97l-1.44 -1.91c-0.56,-0.67 -0.38,-0.47 -0.63,-1.07 -0.32,-0.77 -0.67,-1.5 -1.17,-2.17 -0.37,-0.51 -0.72,-0.93 -1.21,-1.28 -0.83,-0.59 -1.47,-0.71 -2.34,-0.99 -0.28,-0.09 -1.89,-0.24 -2.18,-0.07 -0,0.22 0.26,0.89 0.34,1.09 0.68,1.58 1.61,3.21 3.2,4.01 0.37,0.19 0.63,0.3 1.01,0.42 0.32,0.11 0.84,0.26 1.16,0.29 0.05,0.25 0.04,0.19 0.18,0.34 0.33,0.37 1.51,1.86 1.58,2.11 -0.13,-0.01 -0.55,-0.28 -0.69,-0.36 -0.35,-0.19 -0.7,-0.34 -1.1,-0.48 -0.12,-0.04 -0.12,-0.02 -0.24,-0.04 -0.14,-0.03 -0.08,-0.04 -0.19,-0.06 -0.18,-0.03 -1.3,-0.05 -1.52,0 -0.13,0.03 -0.06,0.04 -0.23,0.06l-0.43 0.08c-0.46,0.1 -1,0.24 -1.43,0.41 -0.21,0.08 -0.52,0.19 -0.7,0.31 -0,0.42 1.02,1.49 1.35,1.78 0.26,0.23 0.62,0.48 0.88,0.66 0.48,0.33 1.35,0.79 1.91,0.83 0.37,0.03 0.69,0.12 1.05,0.04 0.31,-0.07 0.73,-0.03 1.04,-0.14 0.15,-0.05 -0.06,-0.02 0.14,-0.05 0.31,-0.05 0.63,-0.13 0.93,-0.25 0.04,-0.02 0.09,-0.03 0.12,-0.05 0.31,-0.13 0.53,-0.32 0.9,-0.29 0.05,0.12 0.08,0.15 0.15,0.26 0.24,0.37 1.04,1.52 1.07,1.73 -0.12,-0 -0.51,-0.26 -0.65,-0.33 -0.24,-0.12 -0.46,-0.23 -0.7,-0.31 -0.21,-0.07 -0.45,-0.08 -0.65,-0.13 -0.09,-0.02 -0.07,-0.04 -0.19,-0.05 -0.25,-0.03 -0.72,-0.02 -0.99,-0.01l-1.14 0.17 -0.97 0.29c-0.07,0.03 -0.11,0.03 -0.19,0.06 -0.2,0.07 -0.72,0.25 -0.85,0.36 0.02,0.23 0.42,0.74 0.57,0.93 0.44,0.58 0.96,1.05 1.58,1.44 1.12,0.71 1.98,1.09 3.44,0.9 0.1,-0.01 0.27,-0.01 0.36,-0.03l0.63 -0.15c0.27,-0.06 1.13,-0.42 1.21,-0.43 0.13,-0.02 0.07,-0.01 0.16,0.02 0.15,0.09 1.55,2.95 1.55,3.06 -0.23,-0.09 -1,-0.64 -1.42,-0.83 -0.25,-0.12 -0.55,-0.23 -0.83,-0.3 -0.75,-0.18 -1.32,-0.07 -2.03,-0.02 -0.75,0.06 -1.92,0.51 -2.58,0.77 -0.08,0.53 1.51,2.03 2.12,2.4 0.89,0.54 1.65,0.96 2.75,0.96l1.04 -0.09 0.89 -0.23c0.18,-0.05 0.38,-0.11 0.55,-0.18 0.17,-0.07 0.38,-0.19 0.58,-0.17 0.01,0.01 0.01,0.02 0.02,0.03 0,0.01 0.01,0.02 0.02,0.03l0.73 1.84c0.3,0.82 0.91,2.53 1.04,3.33 -0.17,-0.02 -0.25,-0.17 -0.34,-0.27 -0.26,-0.31 -0.87,-0.92 -1.19,-1.12 -0.38,-0.23 -0.69,-0.44 -1.13,-0.57 -0.06,-0.02 -0.17,-0.05 -0.24,-0.07l-0.67 -0.16c-0.62,-0.11 -1.47,-0.26 -2.09,-0.11 -0.33,0.08 -0.74,-0.02 -0.99,0.13 -0.08,0.51 0.73,1.77 0.94,2.08 0.57,0.84 1.41,1.71 2.33,2.17 0.27,0.13 0.55,0.25 0.84,0.31l0.59 0.14c0.25,0.07 1.91,0.06 2.22,0.02 0.18,-0.02 0.07,-0.06 0.3,-0.06 0.06,0.13 0.06,0.22 0.07,0.4 0.02,0.18 0.05,0.18 0.07,0.35l0.16 1.13c0.01,0.14 -0,0.28 0.02,0.41l0.07 0.79c0.01,0.27 0.07,0.45 0.07,0.77 0.01,0.53 0.07,2 -0.09,2.45 -0.12,-0.05 -0.42,-0.75 -0.5,-0.89 -0.16,-0.29 -0.33,-0.55 -0.52,-0.85 -0.26,-0.4 -0.59,-0.83 -0.95,-1.15 -0.25,-0.23 -0.51,-0.41 -0.78,-0.59 -0.45,-0.29 -1.2,-0.59 -1.71,-0.72 -0.12,-0.03 -0.17,-0.07 -0.26,-0.08 -0.19,-0.04 -0.43,-0.07 -0.6,-0.11 -0.36,-0.1 -0.84,-0.17 -1.26,-0.14 -0,0.89 0.33,1.72 0.71,2.49 0.19,0.4 0.37,0.67 0.58,1 0.61,0.97 1.34,1.65 2.38,2.11l0.07 0.03c0.41,0.16 0.79,0.29 1.27,0.38l0.64 0.14c0.23,0.04 0.54,-0.02 0.72,0.06 0.03,0.2 -0,0.28 -0.05,0.45 -0.03,0.12 -0.04,0.3 -0.06,0.45 -0.06,0.44 -0.18,0.75 -0.24,1.04l-0.53 2.26c-0.12,0.44 -0.56,2 -0.77,2.25 -0.09,-0.1 -0.11,-0.42 -0.13,-0.59 -0.01,-0.13 -0.09,-0.48 -0.12,-0.62 -0.32,-1.26 -0.43,-1.95 -1.3,-3.04 -0.23,-0.3 -0.46,-0.54 -0.71,-0.77 -0.5,-0.45 -1.06,-0.91 -1.64,-1.24 -0.14,-0.08 -0.29,-0.18 -0.46,-0.28 -0.1,-0.05 -0.38,-0.22 -0.46,-0.24l-0.11 0.09c-0.14,1.17 -0.12,1.85 0.08,2.94 0.23,1.26 0.67,2.34 1.47,3.31 0.61,0.73 1.42,1.24 2.23,1.74 0.16,0.1 0.34,0.16 0.52,0.25 0.05,0.32 -0.9,2.01 -1.09,2.35 -0.05,0.09 -0.08,0.14 -0.13,0.23l-0.09 0.16c-0.69,1.11 -1.42,2.24 -2.3,3.18 -0.15,0.15 -0.46,0.6 -0.69,0.67 0.03,-0.2 0.32,-1.04 0.39,-1.33l0.28 -1.35c0.04,-0.89 0.12,-1.5 0.01,-2.39 -0.02,-0.13 -0,-0.28 -0.04,-0.39 -0.16,-0.51 -0.31,-1.07 -0.52,-1.54 -0.41,-0.91 -0.98,-1.81 -1.62,-2.56 -0.08,-0.09 -0.14,-0.16 -0.19,-0.23 -0.06,-0.08 -0.08,-0.16 -0.19,-0.18 -0.16,0.02 -0.51,1.01 -0.57,1.18 -0.13,0.38 -0.31,0.96 -0.34,1.37 -0.08,1 -0.25,2.28 0.05,3.23l0.48 1.28c0.14,0.34 0.43,0.8 0.62,1.1 0.31,0.48 1.14,1.59 1.62,1.86 -0.04,0.15 -0.02,0.11 -0.12,0.21 -0.31,0.31 -1.17,1.12 -1.47,1.35 -0.49,0.37 -0.95,0.78 -1.45,1.12 -0.38,0.25 -1.22,0.92 -1.59,0.99 0.01,-0.24 0.11,-0.39 0.2,-0.58 0.16,-0.33 0.26,-0.68 0.38,-1.04l0.37 -1.41c0.11,-0.53 0.1,-1.15 0.05,-1.69 -0.13,-1.38 -0.59,-2.63 -1.15,-3.85 -0.06,-0.14 -0.15,-0.39 -0.25,-0.47 -0.48,0.24 -1.12,1.52 -1.34,1.98 -0.3,0.65 -0.49,1.49 -0.67,2.21 -0.11,0.44 -0.14,1.46 -0.04,1.89l0.07 0.35c0.02,0.12 0.06,0.21 0.08,0.33 0.08,0.43 0.23,0.88 0.37,1.28l0.49 1.13c0.07,0.14 0.24,0.42 0.24,0.57 -0.06,0.17 -1.81,0.97 -2.19,1.17 -0.11,0.06 -0.21,0.09 -0.31,0.15l-0.65 0.3c-0.23,0.09 -0.42,0.18 -0.66,0.29l-0.65 0.29c-0.19,0.07 -0.5,0.24 -0.67,0.24 0.02,-0.09 0.43,-0.73 0.54,-0.91 0.33,-0.55 0.95,-1.91 1.05,-2.56 0.03,-0.22 0.08,-0.4 0.09,-0.63 0.02,-0.48 0.01,-0.97 0,-1.44 -0.01,-0.29 -0.08,-0.43 -0.09,-0.63 -0.01,-0.27 -0.06,-0.37 -0.08,-0.63 -0.06,-0.57 -0.39,-1.69 -0.61,-2.27 -0.45,0.09 -1.3,1.29 -1.56,1.69 -0.21,0.32 -0.42,0.7 -0.58,1.07l-0.3 0.72c-0.03,0.1 -0.03,0.09 -0.06,0.16 -0.36,0.97 -0.39,2.23 -0.21,3.32l0.27 1.34c0.08,0.36 0.36,0.98 0.38,1.25 -0.03,0.02 -0.03,0.03 -0.07,0.06 -0.12,0.09 -0.77,0.32 -0.93,0.37l-1.75 0.68c-0.08,0.03 -0.16,0.07 -0.25,0.1l-2.56 0.92c-0.17,0.06 -0.28,0.11 -0.47,0.18l-1.08 0.34c-0.2,0.06 -0.34,0.1 -0.52,0.17 -0.18,0.06 -0.36,0.13 -0.58,0.09 -0.07,-0.24 -0.02,-3.51 -0.02,-4.04 0,-0.97 -0.05,-3.21 0,-4.02 0.54,-0.29 1.07,-0.65 1.6,-0.97l8.52 -5.18c0.07,-1.29 -0.01,-2.86 0,-4.21 0,-0.16 -0.02,-0.15 0.06,-0.24 0.16,-0.07 5.78,-0.02 6.5,-0.03 -0.01,-0.19 -0.12,-0.3 -0.2,-0.44 -0.39,-0.65 -0.76,-1.33 -1.17,-1.96 -0.17,-0.27 -0.3,-0.5 -0.46,-0.77l-0.94 -1.55c-0.33,-0.56 -0.61,-1.06 -0.93,-1.57l-1.65 -2.75c-0.05,-0.08 -0.06,-0.12 -0.11,-0.21 -0.01,-0.02 -0.05,-0.07 -0.06,-0.09 -0.02,-0.04 -0.03,-0.07 -0.05,-0.09l-0.94 -1.56c-0.29,-0.5 -0.62,-0.98 -0.92,-1.55l-3.99 -0.01c0.02,-0.22 1.03,-1.93 1.27,-2.34 0.32,-0.55 0.35,-0.44 0.21,-0.76 0.09,-0.21 0.34,-0.43 0.47,-0.67 0.42,-0.85 0.21,-1.83 -0.43,-2.47 -0.32,-0.32 -0.19,-0.32 -0.79,-0.32 -1.04,0 -2.32,0.06 -3.32,-0.01l0.01 -1.19 4.23 -0c0.16,-0.22 0.1,-0.32 -0.05,-0.49l-1.61 -1.84c-0.08,-0.1 -0.11,-0.1 -0.19,-0.2 -0.56,-0.7 -1.25,-1.36 -1.8,-2.04 -0.12,-0.15 -0.23,-0.25 -0.35,-0.39l-0.73 -0.82c-0.14,-0.18 -0.11,-1.19 -0.06,-1.45 0.02,-0.03 0.97,-0.43 1.52,-1.28 0.43,-0.66 0.44,-1.52 0.01,-2.23 -0.39,-0.65 -0.81,-0.95 -1.5,-1.31 -0.26,-0.14 -0.47,-0.19 -0.77,-0.29 -0.15,-0.05 -0.37,-0.13 -0.54,-0.15l-0.92 -0.11 0.03 -0.26c0.1,-0.04 0.17,-0.03 0.3,-0.07 0.05,-0.02 0.04,-0.01 0.08,-0.03l0.6 -0.31c1.3,-0.8 2.21,-3.13 2.27,-4.54 0.01,-0.22 0.07,-0.41 0.08,-0.63 0.01,-0.22 0.01,-0.45 0.01,-0.67 -0,-1.59 -0.04,-1.09 -0.3,-1.33l-0.47 -0.87c-0.43,-0.8 -0.95,-1.55 -1.48,-2.28 -1.09,-1.52 -1,-0.68 -1,-2.21 0,-0.8 0.06,-7.92 -0.04,-8.53l-0.54 0.01c-0.08,1.39 -0.03,2.86 -0.03,4.26 0,1.44 -0,2.88 0,4.33 0,0.73 -0,0.49 -0.77,1.39 -0.32,0.38 -0.63,0.8 -0.93,1.22 -0.43,0.62 -0.87,1.31 -1.24,1.99 -0.11,0.19 -0.3,0.52 -0.39,0.74zm3.62 30.8c0.14,-0.05 0.21,-0.4 0.26,-0.53l0.47 -1.22c0.05,-0.14 0.2,-0.5 0.21,-0.63l-0.94 -0.01 -0.01 2.39zm6.69 5.42c0.02,0.27 0.97,2.11 1.21,2.64 0.16,0.37 0.61,1.38 0.76,1.6l2.14 -0.02c0.01,-0.14 -0.54,-1.24 -0.66,-1.47l-0.72 -1.5c-0.11,-0.2 -0.2,-0.4 -0.29,-0.58 -0.83,-1.6 -0.17,-1.21 -1.53,-0.96 -0.14,0.02 -0.34,0.09 -0.47,0.13 -0.14,0.04 -0.32,0.08 -0.44,0.14zm-2.77 -5.15l0.37 0.01c0.22,0.55 0.84,1.78 1.12,2.4l1.11 2.43c0.16,0.01 1.75,-0.44 1.87,-0.51 -0.02,-0.16 -0.11,-0.3 -0.17,-0.42l-0.61 -1.25c-0.25,-0.53 -0.54,-1.11 -0.8,-1.67l-0.6 -1.22c-0.24,-0.49 -0.77,-1.76 -1.02,-2.08 -0.04,0.04 0,-0.01 -0.05,0.06l-0.95 1.65c-0.07,0.12 -0.3,0.44 -0.29,0.6zm10.62 -20.13c-0.03,0.33 0.99,1.29 1.22,1.48 1.52,1.28 3.05,1.77 5.06,1.12 0.21,-0.07 0.79,-0.23 1,-0.38 -0.01,-0.24 -0.46,-0.88 -0.59,-1.14 -0.31,-0.59 -0.33,-0.56 -0.82,-0.9 -0.17,-0.11 -0.36,-0.23 -0.52,-0.32 -0.86,-0.44 -1.13,-0.55 -2.22,-0.55 -1.2,0 -2.21,0.33 -3.12,0.69zm-14.54 -0.81c0,0.5 -0.03,2.8 0.01,3.33 0.6,0.05 1.2,-0.08 1.67,-0.23 0.28,-0.09 0.5,-0.14 0.73,-0.26 0.23,-0.12 0.42,-0.22 0.62,-0.37 0.73,-0.53 1.43,-1.5 0.89,-2.66 -0.39,-0.84 -1.33,-1.39 -2.26,-1.67 -0.32,-0.1 -1.2,-0.26 -1.53,-0.22 -0.14,0.01 -0.12,-0.01 -0.14,0.12 -0.05,0.28 0,1.59 0,1.97zm22.6 39.46c0.21,0.29 1.53,0.66 2.05,0.71 0.64,0.06 0.51,0.1 1.3,0.07 0.37,-0.01 0.82,-0.15 1.14,-0.28 0.81,-0.32 1.79,-1.12 2.38,-1.73 0.12,-0.12 0.6,-0.63 0.65,-0.75 -0.25,-0.24 -1.6,-0.64 -2.06,-0.7 -0.23,-0.03 -0.26,-0.08 -0.57,-0.08 -0.66,-0.01 -1.25,-0.11 -1.93,0.15 -0.51,0.2 -1.46,0.61 -1.77,1.02l-1.2 1.59zm-6.48 5.27c0.05,0.27 1.12,1.12 1.43,1.34 0.92,0.64 1.98,1.08 3.14,0.95 0.83,-0.1 1.43,-0.24 2.18,-0.59 0.26,-0.12 0.72,-0.3 0.93,-0.48 -0.24,-0.34 -1.08,-1.07 -1.47,-1.32 -1.48,-0.94 -2.54,-1.43 -4.42,-0.96 -0.34,0.09 -0.56,0.27 -0.92,0.5 -0.17,0.11 -0.79,0.45 -0.87,0.56zm-5.79 -56.59c0,0.4 0.65,1.66 0.87,2.04 1.09,1.88 2.04,2.61 4.12,3.13 0.12,0.03 0.53,0.13 0.62,0.12 0.16,-0.01 0.31,-0.26 0.39,-0.35 0.4,-0.44 0.39,-0.3 0.15,-0.9 -0.13,-0.33 -0.32,-0.66 -0.48,-0.96 -0.26,-0.49 -0.86,-1.3 -1.25,-1.66 -1,-0.93 -2.65,-1.45 -4.41,-1.41zm6.81 18.12c0.08,0.47 1.44,1.67 2.01,2.02 0.6,0.37 1.19,0.71 1.93,0.79 0.32,0.03 1.05,0.04 1.36,-0.01l1.07 -0.26c0.33,-0.11 0.75,-0.23 0.99,-0.37 0.02,-0.14 -0.43,-1.25 -0.64,-1.41 -0.13,-0.1 -0.29,-0.23 -0.4,-0.31 -0.84,-0.67 -1.85,-1.15 -2.93,-1.21l-1.02 0.04c-0.18,0.01 -0.14,0.03 -0.26,0.07 -0.54,0.14 -0.39,0.06 -1.09,0.27 -0.29,0.09 -0.85,0.22 -1.03,0.38zm11.77 17.69c0.95,-0.01 3.03,-1.58 3.54,-2.43 0.62,-1.04 0.97,-2.13 1.15,-3.35 0.05,-0.35 0.14,-1.02 0.11,-1.38 -0.36,-0.05 -1.97,0.95 -2.38,1.31 -1.13,0.97 -1.65,1.58 -2.11,3.14 -0.31,1.05 -0.08,0.56 -0.2,1.29l-0.11 1.42zm-8.77 -11.9c0,0.25 0.64,1.33 0.81,1.58 0.6,0.85 1.57,1.9 2.59,2.27 0.81,0.29 2.31,0.51 3.28,0.27l0.14 -0.06c0,-0.27 -0.16,-0.89 -0.23,-1.14 -0.18,-0.59 -1.53,-1.86 -1.98,-2.18 -0.47,-0.34 -1.3,-0.67 -2.02,-0.74 -0.15,-0.01 -0.14,-0.04 -0.23,-0.06 -0.22,-0.06 -2.11,-0.07 -2.35,0.06zm-8.83 -15.8c0.11,0.56 1.33,1.53 1.77,1.89 0.3,0.24 0.82,0.48 1.17,0.66 0.94,0.47 2.25,0.34 3.23,0.06 0.43,-0.13 1.09,-0.32 1.43,-0.54 -0.01,-0.16 -0.72,-1.13 -0.84,-1.23 -0.6,-0.53 -1.39,-1.01 -2.17,-1.34 -0.7,-0.3 -1.72,-0.24 -2.48,-0.15l-0.47 0.09c-0.01,0 -0.02,0.01 -0.02,0.01l-0.04 0.02c-0.01,0 -0.02,0.01 -0.02,0.01l-1.57 0.54zm-1.73 51.62c0.26,0.83 1.88,2.34 2.8,2.81 0.68,0.35 1.4,0.47 2.36,0.45 0.56,-0.02 1.95,-0.27 2.32,-0.49 -0.05,-0.42 -1.54,-1.88 -2.02,-2.26 -0.99,-0.77 -1.71,-1.12 -3.25,-1.11 -0.75,0 -1.09,0.08 -1.71,0.37 -0.16,0.07 -0.37,0.12 -0.5,0.23zm15.53 -15.75c0.37,-0.72 0.07,-1.8 -0.08,-2.55 -0.03,-0.15 -0.02,-0.17 -0.06,-0.28 -0.22,-0.58 -0.24,-1.09 -0.75,-1.92 -0.59,-0.94 -1.41,-1.65 -2.29,-2.25 -0.09,-0.06 -0.83,-0.55 -0.95,-0.57 -0.15,-0.03 -0.12,0.04 -0.13,0.2 -0.03,0.44 -0.08,0.56 -0.02,1.07 0.03,0.24 0.03,0.45 0.05,0.69 0.02,0.19 0.08,0.46 0.12,0.67 0.11,0.66 0.49,1.74 0.79,2.23 0.36,0.61 0.9,1.17 1.43,1.59 0.82,0.65 0.83,0.59 1.6,1.04l0.07 0.04c0.14,0.07 0.12,0.05 0.23,0.04zm2.16 -8.02c0.14,-0.53 0.1,-0.77 -0.11,-1.18 -0.16,-0.32 -0.29,-0.66 -0.49,-0.98 -0.87,-1.4 -1.41,-2.23 -3.1,-2.87 -0.33,-0.13 -0.8,-0.28 -1.15,-0.34 -0.16,-0.03 -0.46,-0.08 -0.6,-0.13l-0.63 -0.11c-0.18,0.05 0.15,0.98 0.2,1.1 0.36,0.95 0.45,1.1 0.98,1.97 0.06,0.1 0.1,0.12 0.15,0.19 0.19,0.25 0.16,0.29 0.5,0.66 0.49,0.52 1.02,0.86 1.8,1.18 0.49,0.2 1.83,0.56 2.45,0.5zm-19.26 18.31l0.01 0.6c0.02,0.35 0.04,0.26 0.07,0.47 0.03,0.17 0.01,0.35 0.06,0.52l0.2 0.92c0.11,0.46 0.2,0.83 0.41,1.28 0.36,0.04 0.66,-0.55 0.92,-0.93 0.23,-0.34 0.47,-0.77 0.66,-1.2 0.95,-2.06 0.84,-2.96 0.55,-5.04 -0.02,-0.16 -0.04,-0.17 -0.07,-0.29 -0.04,-0.2 -0.33,-1.4 -0.43,-1.43 -0.15,-0.05 -0.68,0.63 -0.76,0.73 -0.48,0.58 -0.78,1.22 -1.1,1.9 -0.35,0.74 -0.53,1.43 -0.53,2.47zm17.9 -37.45l0 0.04c-0,0.82 0.09,2.11 0.29,2.86 0.24,-0.02 0.97,-0.74 1.14,-0.95 1.55,-1.86 1.93,-3.18 1.81,-5.61 -0.02,-0.44 -0.23,-1.93 -0.45,-2.25 -0.42,0.17 -1.61,1.83 -1.92,2.39 -0.24,0.44 -0.53,0.99 -0.67,1.51 -0.16,0.6 -0.2,1.33 -0.2,2zm-10.82 38.29c0.29,-0.1 0.32,-0.18 0.45,-0.43 0.35,-0.66 0.43,-0.84 0.68,-1.55 0.13,-0.37 0.33,-0.96 0.41,-1.33 0.15,-0.72 0.14,-1.37 0.1,-2.15 -0.05,-0.02 0.08,0.05 -0.04,0 -0.03,-0.19 -0.03,-0.4 -0.06,-0.56 -0.15,-0.7 -0.8,-2.79 -1.11,-3.07 -0.32,0.15 -0.98,1.47 -1.14,1.88 -0.25,0.66 -0.58,1.73 -0.6,2.45 -0.04,1.52 0.26,2.51 0.79,3.76 0.09,0.22 0.37,0.87 0.52,0.99zm11.52 -10.36c1.39,0.48 3.54,0.2 4.71,-0.71 0.6,-0.47 0.93,-0.9 1.43,-1.53 0.21,-0.26 1.06,-1.63 1.04,-1.9 -0.86,-0.27 -2.85,0.03 -3.71,0.35 -1.23,0.47 -2.23,1.72 -2.96,2.81 -0.13,0.2 -0.49,0.73 -0.51,0.96zm-3.25 -31.07c0.35,-0.1 1.18,-1.25 1.41,-1.63 0.16,-0.26 0.64,-1.23 0.75,-1.57 0.07,-0.22 0.12,-0.37 0.19,-0.58 0.18,-0.51 0.16,-1.57 0.13,-2.19 -0.01,-0.26 -0.06,-0.43 -0.08,-0.7 -0.01,-0.18 -0.1,-0.41 -0.14,-0.6 -0.03,-0.13 -0.05,-0.2 -0.08,-0.3 -0.03,-0.11 -0.03,-0.2 -0.07,-0.32 -0.06,-0.19 -0.14,-0.4 -0.18,-0.58 -0.07,-0.26 -0.08,-0.48 -0.24,-0.54 -0.11,0.07 -0.57,0.68 -0.66,0.81 -0.49,0.69 -1.32,2.17 -1.47,2.99 -0.2,1.06 -0.17,1.7 -0.1,2.81 0.02,0.37 0.4,2.24 0.55,2.42zm5.21 13.09c0,0.23 -0.05,0.81 0.06,0.89 0.01,0 0.02,0 0.03,0.01 0.05,0.11 0.81,-0.39 0.83,-0.4 0.27,-0.17 0.49,-0.36 0.73,-0.57 1.67,-1.54 2.3,-3 2.31,-5.59 0,-0.51 -0.02,-1.08 -0.1,-1.53 -0.37,0.03 -1.35,0.94 -1.59,1.19 -0.46,0.47 -0.88,0.94 -1.24,1.5 -0.74,1.16 -1.02,2.8 -1.02,4.5zm-10.59 18.36c0,0.22 -0.01,0.82 0.04,0.99 0.11,0.33 0.1,0.43 0.2,0.75 0.07,0.26 0.15,0.43 0.27,0.67 0.43,0.86 0.83,1.65 1.48,2.36 0.07,0.08 0.15,0.18 0.23,0.27 0.1,0.11 0.15,0.19 0.3,0.22 0.43,-0.87 0.63,-2.85 0.63,-3.88 -0,-0.73 -0.19,-1.57 -0.51,-2.25 -0.41,-0.86 -0.4,-0.92 -0.99,-1.83l-0.58 -0.79c-0.14,-0.18 -0.13,-0.19 -0.28,-0.25 -0.16,0.36 -0.5,1.23 -0.59,1.65 -0.03,0.15 -0.07,0.31 -0.08,0.48 -0.02,0.26 -0.03,0.28 -0.08,0.49 -0.04,0.15 -0.04,0.92 -0.04,1.13zm-26.81 0.91l0.06 0.06c0.53,0.46 2.48,1.84 3.15,2.33l3.23 2.36c0.37,0.26 0.74,0.54 1.08,0.79l0.96 0.69c0.12,0.07 0.04,0.05 0.2,0.08l-0 -3.01 -1.99 -1.3c-0.78,-0.49 -1.75,-1.16 -2.5,-1.62l-2.97 -1.96c-0.17,-0.11 -0.4,-0.29 -0.55,-0.31l-0.11 0.22c-0.03,0.11 -0.04,0.16 -0.08,0.24 -0.11,0.29 -0.46,1.15 -0.49,1.41zm-1.01 9.37c-1.96,0.28 -3,3.22 -1.31,5.13 0.17,0.19 0.54,0.45 0.81,0.56 1.86,0.77 3.52,-1.09 3.32,-3.11 -0.15,-1.49 -1.25,-2.81 -2.82,-2.59zm9.96 -3.04c0.21,-0.02 1.03,-0.61 1.26,-0.75 0.41,-0.25 0.83,-0.51 1.25,-0.79l6.17 -3.92c0.19,-0.13 0.41,-0.26 0.63,-0.39 0.13,-0.08 0.56,-0.33 0.61,-0.41 0.05,-0.09 0.08,-3.4 0.02,-3.64 -0.27,-0.01 -0.92,-0.07 -1.11,0.09 -0.57,0.48 -1.5,1.12 -2.11,1.62 -1.11,0.9 -3.01,2.32 -4.2,3.22l-2.11 1.61c-0.44,0.34 -0.42,0.19 -0.42,0.86 0,0.81 -0.03,1.7 0.01,2.5zm-1.18 -50.57c-0.01,0.24 0.06,0.19 -0.25,0.51 -0.37,0.38 -0.76,0.78 -0.98,1.24 -0.46,0.92 -0.48,1.76 -0.48,2.87 0,0.62 0.87,1.73 1.45,2.14 0.38,0.27 0.83,0.42 1.4,0.39 0.49,-0.02 0.91,-0.3 1.25,-0.55 0.72,-0.54 1.21,-1.61 1.49,-2.52 0.34,-1.08 0.41,-1.61 0.41,-2.83 -0,-1.03 0.04,-0.86 -0.43,-1.74 -0.67,-1.23 -1.52,-2.45 -2.42,-3.52 -0.1,-0.12 -0.14,-0.24 -0.29,-0.25 0.03,0.33 0.6,1.72 0.26,2.62 -0.09,0.24 -0.49,0.69 -0.66,0.88 -0.16,0.17 -0.59,0.69 -0.75,0.78zm17.66 40.39c-0.01,-0.14 -0.7,-1.26 -0.86,-1.51 -0.15,-0.23 -0.29,-0.53 -0.44,-0.76l-2.24 -3.74c-0.3,-0.49 -0.6,-1 -0.89,-1.5l-1.79 -2.98c-0.19,-0.31 -0.74,-1.29 -0.91,-1.5l-4.03 -0.01c-0.01,0.17 0.35,0.86 0.42,1 0.37,0.69 0.8,1.73 1.18,2.44 0.29,0.55 0.46,1 0.71,1.47l3.06 6.37c0.08,0.16 0.17,0.33 0.24,0.5 0.14,0.35 0.26,0.24 1.2,0.24 0.71,0 3.93,0.03 4.35,-0.01zm-21.34 2.4c0.17,0.11 1.34,-0.15 1.53,-0.19 0.83,-0.19 1.74,-0.7 2.17,-1.42 0.2,-0.33 0.45,-0.82 0.55,-1.27 0.27,-1.22 0.3,-0.96 0.4,-2.29 0.02,-0.28 0.46,-0.92 0.6,-1.21l0.99 -1.75c0.41,-0.7 0.87,-1.61 1.29,-2.29l2.6 -4.64c0.17,-0.31 1.26,-2.17 1.28,-2.33l-4.32 -0.01c-0.08,0.04 -0.04,0.02 -0.1,0.09 -0.07,0.09 -0.12,0.3 -0.17,0.42 -0.23,0.55 -0.45,1.26 -0.65,1.71 -0.15,0.33 -0.31,0.76 -0.44,1.13l-0.87 2.3c-0.15,0.37 -0.3,0.76 -0.44,1.14l-1.76 4.56c-0.09,0.1 -0.45,0.16 -0.58,0.2 -0.79,0.27 -1.8,1.01 -2.2,1.76 -0.32,0.6 -0.33,2.08 -0.18,2.8 0.05,0.22 0.08,0.45 0.12,0.66 0.02,0.11 0.04,0.22 0.07,0.32 0.03,0.11 0.05,0.23 0.11,0.31zm4.85 -4.18l0.01 8.47c0.16,-0.01 0.32,-0.21 0.54,-0.37 0.5,-0.37 1.47,-1.2 2.02,-1.64 0.17,-0.14 0.3,-0.24 0.51,-0.41l1.32 -0.97c0.41,-0.29 3.94,-2.84 3.96,-2.94 -0.01,-0.21 -0.41,-0.99 -0.51,-1.19 -0.18,-0.37 -0.34,-0.79 -0.54,-1.18l-1.63 -3.55c-0.31,-0.58 -0.54,-1.17 -0.81,-1.76l-0.82 -1.76 -0.39 -0.01c-0.09,0.13 -0.15,0.26 -0.24,0.41l-0.74 1.34c-0.17,0.31 -0.33,0.57 -0.5,0.87 -0.55,0.97 -1.15,2.13 -1.7,3.09 -0.4,0.69 -0.47,0.57 -0.47,1.6zm-3.74 -38.68c-0.09,0.03 -0.13,-0 -0.16,0.04m25.06 5.45c0.16,-0.27 0.66,-1.27 0.78,-1.62 0.07,-0.23 0.12,-0.38 0.2,-0.6 0.19,-0.52 0.16,-1.63 0.13,-2.26 -0.01,-0.27 -0.06,-0.45 -0.08,-0.73 -0.01,-0.18 -0.1,-0.42 -0.15,-0.62 -0.03,-0.14 -0.05,-0.2 -0.08,-0.31 -0.03,-0.12 -0.04,-0.21 -0.08,-0.33 -0.06,-0.2 -0.14,-0.42 -0.19,-0.6 -0.07,-0.27 -0.09,-0.5 -0.25,-0.56 -0.11,0.07 -0.59,0.71 -0.68,0.84 -0.51,0.72 -1.36,2.25 -1.52,3.09 -0.21,1.1 -0.18,1.76 -0.11,2.91 0.38,2.39 0.61,3.18 2.03,0.81zm-1.3 1.37c0.34,-0.09 1.04,-1.16 1.26,-1.53 0.15,-0.26 0.62,-1.18 0.72,-1.52 0.07,-0.21 0.11,-0.36 0.19,-0.56 0.17,-0.49 0.15,-1.52 0.13,-2.11 -0.01,-0.25 -0.06,-0.42 -0.08,-0.68 -0.01,-0.17 -0.1,-0.4 -0.14,-0.58 -0.03,-0.13 -0.05,-0.19 -0.07,-0.29 -0.03,-0.11 -0.03,-0.2 -0.07,-0.31 -0.06,-0.19 -0.13,-0.39 -0.18,-0.56 -0.06,-0.25 -0.08,-0.47 -0.23,-0.52 -0.1,0.07 -0.55,0.66 -0.64,0.79 -0.47,0.67 -1.18,2.1 -1.33,2.89 -0.2,1.03 -0.26,1.65 -0.2,2.72 0.02,0.36 0.49,2.11 0.63,2.29z"/>
   </g>
   <path class="fil0 str0" d="M31.73 70.56l0.76 -0.52c0.29,-0.27 0.4,-0.38 0.62,-0.72 0.19,-0.3 0.29,-0.5 0.4,-0.91 0.4,-1.51 0.11,-2.89 -1,-3.96 -0.46,-0.44 -0.7,-0.41 -0.78,-0.55 0.58,-0.01 0.68,-0.03 1.18,-0.19 0.51,-0.17 1.06,-0.63 1.35,-1.04 0.06,-0.09 0.07,-0.13 0.14,-0.22 0.39,-0.51 0.61,-1.51 0.6,-2.14 -0.01,-0.65 -0.06,-0.68 -0.2,-1.17 -0.29,-1.05 -0.99,-1.52 -1.05,-1.66 0.72,-0.05 1.32,-0.02 1.99,-0.61 0.3,-0.26 0.39,-0.36 0.64,-0.66 0.34,-0.42 0.67,-1.39 0.68,-1.98 0.01,-0.47 -0.05,-1.3 -0.24,-1.72l-0.62 -1.03c-0.06,-0.07 -0.11,-0.11 -0.17,-0.18 -0.14,-0.1 -0.25,-0.25 -0.44,-0.37 -1.49,-0.95 -3.1,-0.4 -3.92,0.99 -0.48,0.81 -0.66,1.61 -0.48,2.74 0.23,1.46 1.06,1.96 1.18,2.21 -1.04,0.04 -1.33,0.01 -2.22,0.77 -0.5,0.43 -0.88,1.19 -1.04,2 -0.12,0.63 -0.04,1.43 0.15,2.05 0.16,0.51 0.53,1.07 0.88,1.41 0.31,0.3 0.45,0.34 0.77,0.53 0.14,0.08 0.06,-0.02 0.12,0.1 -1.03,0.03 -1.82,0.25 -2.48,1.11 -0.51,0.67 -0.91,1.6 -0.8,2.79 0.04,0.49 0.2,0.98 0.4,1.4 0.37,0.8 1.08,1.41 1.94,1.65 0.78,0.21 1.23,-0.04 1.65,-0.1zm-1.52 -6.21c-0.32,0.14 -0.41,0.08 -0.9,0.44 -1.37,1.03 -1.49,3.6 -0.15,4.77 1.22,1.07 2.8,0.69 3.57,-0.61 0.96,-1.63 0.33,-3.98 -1.3,-4.54 -0.31,-0.1 -0.88,-0.21 -1.22,-0.07zm3.62 -13.33c-0.24,0.05 -0.35,0.04 -0.55,0.13 -2.3,0.97 -2.16,4.64 -0.13,5.53 1.09,0.48 2.2,0.08 2.85,-0.88 0.41,-0.6 0.66,-1.36 0.55,-2.13 -0.12,-0.83 -0.32,-1.4 -0.81,-1.91 -0.38,-0.4 -1.16,-0.91 -1.92,-0.74zm-4.32 9.32c0,1.46 0.93,2.96 2.49,2.98 2.08,0.02 3.38,-2.94 1.82,-4.98 -0.87,-1.14 -2.53,-1.31 -3.61,-0.03 -0.43,0.51 -0.7,1.24 -0.7,2.03z"/>
   <path class="fil0 str0" d="M37.35 82.55c-0.04,0.06 -0.18,0.12 -0.27,0.17 -0.11,0.06 -0.19,0.12 -0.29,0.2 -0.22,0.18 -0.33,0.32 -0.48,0.51 -0.25,0.32 -0.55,0.8 -0.64,1.3 -0.13,0.06 -0.15,1.06 -0.15,1.2 0.01,0.66 0.22,1.22 0.49,1.77 0.62,1.23 2.17,2.01 3.55,1.37 1.02,-0.48 1.12,-0.96 1.53,-1.52 0.06,-0.21 0.17,-0.3 0.3,-0.92 0.23,-1.1 0.01,-2.15 -0.58,-3.06 -0.31,-0.48 -0.88,-0.94 -1.38,-1.11 -0.54,-0.19 -1.05,-0.23 -1.63,-0.08 -0.14,0.04 -0.34,0.14 -0.46,0.17zm0.63 0.36c-0.72,0.22 -1.11,0.57 -1.5,1.18 -0.34,0.54 -0.55,1.42 -0.41,2.24 0.44,2.58 3.19,3.27 4.47,1.18 0.3,-0.49 0.61,-1.5 0.41,-2.25 -0.11,-0.44 0.02,-0.31 -0.32,-1.03 -0.4,-0.85 -1.57,-1.65 -2.65,-1.32z"/>
   <path class="fil0 str0" d="M36.36 50.77c1.09,0.58 2.26,0.49 3.15,-0.29 0.45,-0.4 0.95,-1.16 1.06,-1.72 0.11,-0.53 0.13,-0.7 0.12,-1.29 -0.01,-0.74 -0.13,-1.07 -0.43,-1.65 -0.09,-0.17 -0.15,-0.31 -0.24,-0.46 -0.33,-0.27 -0.21,-0.38 -0.97,-0.87 -1.23,-0.8 -2.91,-0.23 -3.72,1.08 -0.47,0.78 -0.73,1.87 -0.48,3.01 0.33,1.54 1.45,2.12 1.5,2.19zm1.03 -6.04c-1.55,0.32 -2.28,1.81 -2.13,3.29 0.02,0.24 0.18,0.83 0.29,1.05 0.14,0.3 0.37,0.61 0.56,0.81 1.62,1.69 4.33,0.2 4.11,-2.56 -0.12,-1.51 -1.39,-2.89 -2.83,-2.59z"/>
   <path class="fil0 str0" d="M36.96 82.35c0.04,-0.26 0.18,-0.42 0.23,-0.77 0.06,-0.52 0.1,-0.17 0.09,-0.92 -0,-1.35 -0.61,-2.56 -1.84,-3.2 -0.13,-0.07 -0.57,-0.24 -0.76,-0.25 -0.9,0.02 -1.17,-0 -1.81,0.42 -2.36,1.58 -1.89,5.52 0.54,6.42 1.39,0.51 2.71,-0.24 3.34,-1.33 0.08,-0.13 0.11,-0.26 0.2,-0.37zm-0.17 -1.66c-0,-1.56 -1.04,-2.95 -2.48,-2.95 -2.08,0 -3.35,2.95 -1.8,5 0.88,1.16 2.62,1.23 3.6,0 0.4,-0.5 0.68,-1.18 0.68,-2.05z"/>
   <path class="fil0 str0" d="M40.43 44.98c0.21,0.08 0.72,0.5 1.41,0.51 0.2,0 0.45,0.01 0.62,-0.03 0.48,-0.12 0.54,-0.13 0.93,-0.34 0.13,-0.07 0.23,-0.16 0.37,-0.27 0.38,-0.28 0.62,-0.67 0.85,-1.09 0.43,-0.79 0.48,-1.86 0.29,-2.76 -0.03,-0.16 -0.13,-0.36 -0.16,-0.5 -0.13,-0.15 -0.5,-1.44 -1.95,-1.91 -1.04,-0.34 -2.12,0.1 -2.81,0.85 -0.65,0.7 -0.97,1.72 -0.9,3 0.02,0.32 0.1,0.51 0.17,0.77 0.12,0.45 0.39,0.92 0.7,1.28 0.09,0.11 0.14,0.17 0.24,0.25 0.09,0.08 0.19,0.14 0.26,0.24zm4.09 -3c-0,-1.44 -0.95,-2.95 -2.53,-2.93 -1.53,0.01 -2.45,1.48 -2.43,3 0.01,1.11 0.51,2.13 1.41,2.6 0.28,0.15 0.72,0.3 1.09,0.29 1.41,-0.03 2.46,-1.43 2.46,-2.96z"/>
   <path class="fil0 str0" d="M41.32 87.82c-0.58,0.82 -0.66,2.5 -0.26,3.39 0.45,1 0.98,1.7 2.11,2.01 1.63,0.46 3.23,-0.96 3.5,-2.54 0.06,-0.35 0.11,-1.08 0.06,-1.48 -0.02,-0.16 -0.07,-0.23 -0.07,-0.46 -0.23,-0.74 -0.76,-1.64 -1.44,-2.03 -0.23,-0.14 -0.53,-0.29 -0.83,-0.37 -0.43,-0.11 -0.87,-0.07 -1.27,0.05 -0.23,0.07 -0.22,0.04 -0.39,0.12 -0.01,0 -0.02,0.01 -0.02,0.01 -0.01,0 -0.02,0.01 -0.02,0.01 -0.42,0.23 -0.46,0.24 -0.86,0.62 -0.21,0.2 -0.36,0.44 -0.51,0.67zm0 1.88c0,0.93 0.18,1.56 0.7,2.17 0.23,0.27 0.43,0.44 0.72,0.61 0.28,0.16 0.68,0.27 1.06,0.27 2.1,-0.01 3.3,-3 1.82,-4.95 -0.64,-0.85 -1.82,-1.24 -2.85,-0.71 -0.28,0.14 -0.56,0.39 -0.74,0.59 -0.45,0.52 -0.72,1.17 -0.72,2.01z"/>
   <path class="fil0 str0" d="M33.72 76.62c0.07,-0.13 0.14,-0.23 0.19,-0.33 0.04,-0.08 0.05,-0.14 0.08,-0.21 0.44,-0.94 0.51,-2.08 0.13,-3 -0.25,-0.6 -0.29,-0.81 -0.86,-1.36 -0.11,-0.11 -0.17,-0.18 -0.28,-0.25 -0.35,-0.26 -0.74,-0.41 -1.16,-0.51 -0.91,-0.02 -1.12,-0.02 -1.78,0.34 -0.44,0.24 -0.81,0.64 -1.06,1.06 -0.36,0.61 -0.41,0.76 -0.54,1.58 -0.39,2.43 1.82,4.91 4.13,3.7 0.24,-0.13 0.44,-0.25 0.63,-0.43 0.1,-0.09 0.18,-0.18 0.26,-0.27 0.07,-0.09 0.18,-0.27 0.25,-0.31zm-2.33 0.76c2.53,-0.01 3.51,-4.12 1.1,-5.6 -1.92,-1.18 -4.33,1.1 -3.41,3.8 0.33,0.95 1.18,1.8 2.3,1.8z"/>
   <path class="fil0 str0" d="M44.94 39.77c0.37,0.39 0.47,0.89 1.5,1.33 0.65,0.28 1.66,0.22 2.35,-0.22 1.33,-0.85 1.79,-2.46 1.5,-4.04 -0.14,-0.24 -0.21,-1.29 -1.43,-2.13 -0.84,-0.57 -1.92,-0.54 -2.81,-0.06 -0.68,0.37 -1.25,1.21 -1.49,2.06 -0.19,0.67 -0.16,1.73 0.09,2.41 0.07,0.2 0.22,0.44 0.28,0.64zm2.07 -4.89c-0.09,0.03 -0.18,0.03 -0.27,0.06 -1.51,0.53 -2.15,2.36 -1.71,3.8 0.37,1.18 1.5,2.27 2.79,1.97 0.3,-0.07 0.65,-0.25 0.89,-0.43 0.31,-0.23 0.48,-0.42 0.67,-0.71 0.82,-1.24 0.67,-3.01 -0.37,-4.04 -0.47,-0.47 -1.37,-0.87 -2,-0.65z"/>
   <path class="fil0 str0" d="M55.18 78.27l0 0.04c0,0.36 -0.06,0.49 0.3,0.45 0.1,-0.01 0.17,-0.04 0.27,-0.08 0.16,-0.06 0.3,-0.13 0.45,-0.21 0.29,-0.16 0.49,-0.38 0.64,-0.71 0.17,-0.36 0.2,-0.65 0.21,-1.14 0.01,-0.42 0.09,-0.82 0.05,-1.26 -0.03,-0.3 -0.1,-0.27 -0.42,-0.26 -0.6,0 -1,0.25 -1.19,0.84 -0.2,0.63 -0.31,1.65 -0.31,2.34z"/>
   <path class="fil0 str0" d="M58.89 67.36c0.14,-0.05 0.21,-0.4 0.26,-0.53l0.47 -1.22c0.05,-0.14 0.2,-0.5 0.21,-0.63l-0.94 -0.01 -0.01 2.39z"/>
  </g>
 </g>
</svg>
